<svg width="34" height="40" viewBox="0 0 34 40" fill="none" xmlns="http://www.w3.org/2000/svg">
<path d="M22.7508 1.00272C22.7573 1.01041 22.7678 1.01296 22.777 1.01041C22.7954 1.03217 22.823 1.04242 22.8518 1.03858C22.857 1.0437 22.8662 1.0437 22.8715 1.03858C22.882 1.05394 22.899 1.06163 22.9174 1.06035C22.9253 1.06803 22.9371 1.07059 22.9476 1.06803C22.9646 1.08852 22.9909 1.10005 23.0171 1.09621C23.025 1.10133 23.0341 1.10133 23.042 1.09621C23.0604 1.11798 23.0879 1.1295 23.1168 1.12566C23.1312 1.14615 23.1575 1.15767 23.1824 1.15384C23.189 1.16152 23.1982 1.16408 23.2073 1.16152C23.2257 1.18329 23.2532 1.19481 23.2821 1.19097C23.2965 1.21274 23.3214 1.22299 23.3477 1.21914C23.3542 1.22427 23.3647 1.22427 23.3713 1.21914C23.3792 1.23451 23.3962 1.24348 23.4146 1.2422C23.4224 1.24988 23.4343 1.25244 23.4448 1.24988C23.4605 1.27165 23.4868 1.28318 23.5143 1.27934C23.5287 1.29983 23.5523 1.31007 23.5773 1.30751C23.5825 1.31519 23.593 1.31775 23.6022 1.31519C23.6087 1.33056 23.6258 1.33952 23.6428 1.33696L23.6744 1.34721C23.69 1.3677 23.7176 1.37922 23.7439 1.37666C23.7583 1.39715 23.7832 1.40868 23.8081 1.40483C23.8121 1.41252 23.8213 1.41508 23.8291 1.41252C23.8383 1.42789 23.8554 1.43813 23.8737 1.43557C23.8803 1.44325 23.8908 1.44581 23.9 1.44454C23.9078 1.4599 23.9236 1.46758 23.9406 1.4663C23.9485 1.47399 23.959 1.47783 23.9695 1.47527C23.9852 1.49704 24.0128 1.50984 24.0403 1.50728C24.0534 1.52905 24.0797 1.54186 24.1059 1.53802C24.119 1.55979 24.1439 1.57131 24.1702 1.56875C24.1833 1.59052 24.2096 1.60205 24.2344 1.59821C24.2476 1.6187 24.2725 1.63023 24.2974 1.62766C24.3014 1.63535 24.3093 1.6379 24.3171 1.63535C24.3263 1.65199 24.3446 1.66096 24.3643 1.65968C24.367 1.66736 24.3761 1.6712 24.3827 1.66736H24.384C24.3932 1.68401 24.4116 1.69297 24.4299 1.69297C24.4365 1.6981 24.4443 1.6981 24.4509 1.69297C24.4601 1.70962 24.4772 1.71986 24.4969 1.71859C24.5008 1.72627 24.5099 1.72883 24.5178 1.72627C24.527 1.74292 24.5454 1.75188 24.5637 1.7506C24.5664 1.75828 24.5756 1.76212 24.5821 1.75828H24.5834C24.5926 1.77493 24.6109 1.78518 24.6306 1.7839C24.6438 1.80439 24.6674 1.81591 24.6923 1.81463C24.7054 1.83512 24.7303 1.84793 24.7553 1.84536C24.7684 1.86714 24.792 1.87994 24.8182 1.87866C24.8313 1.90043 24.8563 1.91324 24.8825 1.91196C24.8864 1.92732 24.9009 1.93757 24.9166 1.93501C24.9232 1.94397 24.9337 1.94781 24.9442 1.94526C24.9494 1.9619 24.9665 1.97215 24.9835 1.96958C24.9887 1.97727 24.9979 1.98111 25.0071 1.97855C25.015 1.9952 25.0321 2.00544 25.0504 2.00416C25.0531 2.01185 25.0623 2.01569 25.0688 2.01185H25.0701C25.0793 2.0285 25.0963 2.03874 25.116 2.03874C25.1291 2.06051 25.1528 2.07331 25.179 2.07203C25.1829 2.08612 25.196 2.09637 25.2118 2.0938C25.2183 2.10277 25.2288 2.10661 25.2393 2.10533C25.2459 2.1207 25.2616 2.12966 25.2787 2.12966C25.2826 2.13735 25.2918 2.14119 25.301 2.13863C25.3089 2.15527 25.3272 2.16552 25.3456 2.16552C25.3574 2.18729 25.3823 2.2001 25.4072 2.19882C25.4099 2.21418 25.4243 2.22443 25.44 2.22315C25.4453 2.23083 25.4558 2.23467 25.4649 2.23339C25.4728 2.24876 25.4886 2.259 25.5069 2.259C25.5188 2.28078 25.5423 2.29486 25.5673 2.29358C25.5699 2.30895 25.5843 2.31792 25.6001 2.31663C25.6053 2.32559 25.6145 2.32944 25.625 2.32816C25.6328 2.34353 25.6486 2.35377 25.667 2.35505C25.6788 2.37682 25.7024 2.39091 25.7273 2.39091C25.7312 2.40628 25.7457 2.41652 25.7614 2.41524C25.7667 2.42292 25.7746 2.42677 25.7837 2.42548C25.7929 2.44213 25.8099 2.45238 25.8283 2.45238C25.8401 2.47543 25.8651 2.49079 25.8913 2.48952C25.8953 2.50616 25.911 2.51769 25.928 2.51769C25.9398 2.53946 25.9635 2.55354 25.9884 2.55354C25.991 2.56891 26.0054 2.58044 26.0225 2.57916C26.0251 2.58684 26.0343 2.59068 26.0422 2.58812C26.0513 2.60605 26.0697 2.6163 26.0894 2.61758C26.092 2.63295 26.1064 2.64319 26.1222 2.64191C26.1248 2.64959 26.134 2.65472 26.1432 2.65215C26.1524 2.6688 26.1694 2.68033 26.1891 2.68161C26.193 2.69697 26.2074 2.70722 26.2232 2.70594C26.2258 2.71362 26.235 2.71874 26.2442 2.71619C26.2521 2.73283 26.2691 2.74435 26.2888 2.74564C26.2914 2.761 26.3071 2.77253 26.3229 2.77125C26.3255 2.77893 26.3347 2.78406 26.3439 2.78149C26.3518 2.79943 26.3688 2.81095 26.3885 2.81095C26.3911 2.8276 26.4068 2.83912 26.4239 2.83784C26.4357 2.85961 26.458 2.87242 26.4829 2.8737C26.4869 2.89035 26.5026 2.90187 26.5197 2.90187C26.5302 2.92492 26.5537 2.93901 26.58 2.93901C26.5839 2.95566 26.5997 2.96718 26.6167 2.96847C26.6181 2.98255 26.6312 2.99279 26.6456 2.99152H26.6469C26.6508 2.9992 26.66 3.00432 26.6692 3.00432C26.6771 3.02097 26.6941 3.0325 26.7138 3.03377C26.7164 3.05042 26.7322 3.06195 26.7492 3.06067C26.761 3.08244 26.7833 3.09781 26.8083 3.09909C26.8109 3.11573 26.8266 3.12854 26.845 3.12854C26.8476 3.14391 26.862 3.15544 26.8778 3.15415H26.8843C26.8949 3.17593 26.9171 3.19129 26.942 3.19257C26.946 3.20922 26.9617 3.22074 26.9788 3.22203C26.9814 3.23739 26.9959 3.24892 27.0116 3.24764H27.0181C27.0273 3.27069 27.0509 3.28606 27.0759 3.28606C27.0798 3.3027 27.0956 3.31423 27.1126 3.31551C27.1152 3.33088 27.1296 3.34241 27.1454 3.34241C27.1559 3.36545 27.1782 3.38082 27.2044 3.3821C27.2083 3.39875 27.2228 3.41155 27.2412 3.41284C27.2438 3.43077 27.2582 3.44357 27.2766 3.44229C27.2792 3.45638 27.291 3.46663 27.3054 3.46663C27.308 3.47559 27.3172 3.47943 27.3264 3.47815C27.3343 3.49608 27.3514 3.50888 27.371 3.51145C27.3737 3.52937 27.3894 3.54218 27.4077 3.54346C27.4104 3.56011 27.4248 3.57291 27.4419 3.57163C27.4445 3.58572 27.4563 3.59597 27.4708 3.59597C27.4734 3.60365 27.4812 3.60877 27.4904 3.60877C27.4996 3.6267 27.5166 3.6395 27.5363 3.64207C27.5403 3.65999 27.5547 3.67281 27.573 3.67408C27.577 3.69073 27.5901 3.70226 27.6072 3.70354C27.6098 3.71891 27.6229 3.73043 27.6387 3.73043C27.64 3.74324 27.6518 3.75348 27.6648 3.75348C27.6688 3.76244 27.678 3.76757 27.6872 3.76757C27.695 3.7855 27.7121 3.7983 27.7318 3.79958C27.7344 3.81751 27.7501 3.83032 27.7685 3.8316C27.7711 3.84825 27.7869 3.86105 27.8039 3.86233C27.8066 3.87898 27.821 3.89051 27.8381 3.89051C27.8407 3.90459 27.8538 3.91612 27.8682 3.91612H27.8748C27.8839 3.93917 27.9063 3.95582 27.9312 3.9571C27.9338 3.97502 27.9495 3.98912 27.9679 3.99039C27.9718 4.00832 27.9863 4.02113 28.0046 4.02369C28.0086 4.04034 28.023 4.05314 28.04 4.05571C28.044 4.07235 28.0571 4.08388 28.0742 4.08644C28.0768 4.10181 28.0899 4.11461 28.107 4.11461C28.1096 4.1287 28.1227 4.14022 28.1371 4.14151H28.1437C28.145 4.15559 28.1568 4.16712 28.1712 4.16712L28.1778 4.17352C28.187 4.19657 28.208 4.21194 28.2329 4.2145C28.2355 4.23243 28.2513 4.24652 28.2696 4.2478C28.2736 4.26573 28.288 4.27853 28.3063 4.28109C28.3089 4.29903 28.3234 4.31311 28.3418 4.31567C28.3444 4.3336 28.3588 4.34768 28.3772 4.34897C28.3798 4.36562 28.3943 4.3797 28.4113 4.38226C28.4139 4.39891 28.4283 4.41172 28.4454 4.413C28.448 4.42964 28.4625 4.44245 28.4795 4.44374C28.4822 4.46038 28.4953 4.4719 28.5123 4.47319C28.5136 4.48855 28.528 4.50136 28.5438 4.50264C28.5464 4.51801 28.5595 4.53082 28.5753 4.5321C28.5766 4.54746 28.5897 4.56027 28.6054 4.56155C28.6067 4.57692 28.6186 4.58844 28.6343 4.58972C28.6356 4.60509 28.6474 4.61661 28.6632 4.6179C28.6645 4.63326 28.6763 4.64479 28.692 4.64607C28.6933 4.66016 28.7064 4.67168 28.7209 4.67296C28.7222 4.68833 28.734 4.69985 28.7498 4.70114C28.7498 4.7165 28.7616 4.72803 28.7773 4.72931C28.7786 4.74468 28.7904 4.7562 28.8062 4.7562C28.8075 4.77157 28.8193 4.7831 28.835 4.78438C28.8363 4.79975 28.8482 4.81127 28.8638 4.81255C28.8652 4.82792 28.877 4.83944 28.8927 4.84072C28.894 4.85609 28.9059 4.8689 28.9216 4.87017C28.9229 4.88554 28.9347 4.89707 28.9505 4.89963C28.9505 4.91628 28.9636 4.92909 28.9806 4.93037C28.9832 4.94573 28.9964 4.95854 29.0121 4.9611C29.0147 4.97775 29.0279 4.99056 29.0436 4.99311C29.0462 5.00976 29.058 5.02257 29.0751 5.02513C29.0777 5.04178 29.0908 5.05586 29.1079 5.05843C29.1105 5.07635 29.1236 5.08916 29.142 5.09172C29.1446 5.10965 29.159 5.12246 29.1761 5.1263C29.1774 5.14423 29.1918 5.15959 29.2102 5.16216C29.2128 5.18008 29.226 5.19417 29.2443 5.19802C29.2456 5.21594 29.26 5.23131 29.2784 5.23387C29.281 5.2582 29.2968 5.27869 29.3204 5.28766L29.3269 5.29406C29.3269 5.30815 29.3387 5.31967 29.3532 5.32095V5.32736C29.3545 5.34273 29.3663 5.35425 29.382 5.35681C29.3834 5.37346 29.3952 5.38626 29.4122 5.38883C29.4136 5.40548 29.4253 5.41828 29.4424 5.42212C29.445 5.43877 29.4581 5.45286 29.4752 5.4567C29.4778 5.47463 29.4909 5.48872 29.5093 5.49256C29.5119 5.51048 29.525 5.52457 29.5434 5.52841C29.5447 5.55274 29.5618 5.57451 29.5854 5.58348C29.5854 5.59884 29.5972 5.61165 29.6129 5.61294C29.6142 5.62958 29.626 5.64237 29.6418 5.64625C29.6431 5.66287 29.6562 5.67696 29.6733 5.68079C29.6746 5.69876 29.6877 5.71284 29.706 5.71668C29.7074 5.73459 29.7205 5.74997 29.7389 5.75251C29.7415 5.77684 29.7572 5.79865 29.7809 5.80885C29.7809 5.82422 29.7926 5.83831 29.8084 5.8409C29.8097 5.85752 29.8215 5.8716 29.8386 5.87544C29.8412 5.89341 29.8543 5.9062 29.8714 5.91003C29.874 5.92924 29.8871 5.94592 29.9054 5.95358C29.9041 5.96253 29.9094 5.97149 29.9186 5.97408C29.9173 5.98817 29.9291 5.99966 29.9435 6.00096C29.9435 6.01763 29.9553 6.03172 29.9723 6.03425C29.9737 6.05217 29.9868 6.06625 30.0038 6.07014C30.0065 6.0893 30.0183 6.10597 30.0367 6.11493C30.0353 6.12389 30.0406 6.13284 30.0498 6.13544C30.0498 6.14952 30.0603 6.16101 30.0747 6.16361C30.0747 6.18022 30.0865 6.19431 30.1035 6.1982C30.1049 6.21611 30.1167 6.23149 30.135 6.23532C30.1377 6.25966 30.1521 6.28141 30.1757 6.29166C30.1757 6.30828 30.1875 6.32242 30.2032 6.32496C30.2046 6.34287 30.2177 6.35696 30.2347 6.36079C30.2374 6.38 30.2492 6.39797 30.2675 6.40693C30.2662 6.41589 30.2714 6.42355 30.2793 6.42614C30.2793 6.44146 30.2898 6.45431 30.3043 6.45684C30.3056 6.47352 30.3174 6.4889 30.3344 6.49273C30.3371 6.51194 30.3488 6.52856 30.3672 6.53752C30.3646 6.54524 30.3698 6.5542 30.3777 6.55673C30.3777 6.55673 30.3777 6.55673 30.379 6.55673C30.3777 6.57211 30.3882 6.5862 30.404 6.58879C30.404 6.6067 30.4171 6.62208 30.4341 6.62592C30.4355 6.65149 30.4512 6.6733 30.4748 6.68355C30.4735 6.70017 30.4853 6.71555 30.5023 6.71938C30.5037 6.73859 30.5155 6.75527 30.5325 6.76293C30.5312 6.77189 30.5364 6.78084 30.5456 6.78468C30.5443 6.79876 30.5561 6.81161 30.5705 6.81414C30.5705 6.83206 30.5824 6.84744 30.5994 6.85127C30.5994 6.8769 30.6152 6.89994 30.6387 6.9102C30.6387 6.92682 30.6506 6.94096 30.6676 6.94603C30.6689 6.96524 30.6807 6.98191 30.6991 6.99087C30.6965 6.99853 30.7018 7.00755 30.7096 7.01008C30.7083 7.02546 30.7201 7.04084 30.7358 7.04338C30.7371 7.06259 30.749 7.07921 30.766 7.08693C30.7634 7.09589 30.7686 7.10484 30.7778 7.10868C30.7765 7.12406 30.787 7.13814 30.8028 7.14073C30.8041 7.15994 30.8158 7.17656 30.8329 7.18422C30.8316 7.19324 30.8368 7.2022 30.8447 7.20603C30.8447 7.22141 30.8552 7.2342 30.8697 7.23803C30.871 7.25724 30.8828 7.27391 30.8998 7.28158C30.8972 7.29053 30.9024 7.29949 30.9103 7.30332C30.9103 7.3187 30.9208 7.33149 30.9352 7.33538C30.9379 7.35459 30.9484 7.37121 30.9654 7.38017C30.9641 7.38913 30.968 7.39684 30.9759 7.40068C30.9746 7.41606 30.9864 7.43138 31.0021 7.43397C31.0034 7.45831 31.0166 7.48135 31.0389 7.49414C31.0389 7.51082 31.0494 7.5262 31.0664 7.53003C31.0664 7.5556 31.0809 7.5787 31.1031 7.59149C31.1031 7.6107 31.1149 7.62732 31.132 7.63504C31.1307 7.644 31.1346 7.65296 31.1425 7.65808C31.1425 7.67346 31.153 7.68625 31.1675 7.69008C31.1675 7.71442 31.1805 7.73746 31.2028 7.75025C31.2015 7.76693 31.2133 7.78231 31.2304 7.78744C31.2291 7.81431 31.2448 7.83865 31.2685 7.85014C31.2685 7.86935 31.2802 7.88732 31.2973 7.89628C31.2947 7.90394 31.2973 7.91166 31.3052 7.91549H31.3065C31.3039 7.93211 31.3157 7.94749 31.3327 7.95132C31.3327 7.97696 31.3472 8.0013 31.3694 8.01538C31.3694 8.03972 31.3839 8.06276 31.4049 8.07555C31.4049 8.09346 31.4154 8.11014 31.4311 8.1191C31.4285 8.12806 31.4337 8.13701 31.4416 8.14084C31.439 8.15752 31.4508 8.17161 31.4665 8.17544C31.4652 8.20107 31.4796 8.22541 31.5019 8.23949C31.5019 8.26507 31.5151 8.28811 31.5374 8.30096C31.5361 8.32017 31.5479 8.33808 31.5649 8.34575C31.561 8.3547 31.5649 8.36372 31.5741 8.36755C31.5715 8.38417 31.582 8.39955 31.599 8.40338C31.5977 8.43031 31.6121 8.45459 31.6358 8.46873C31.6358 8.4956 31.6488 8.51994 31.6712 8.53403C31.6698 8.5596 31.683 8.58394 31.7053 8.59679C31.7053 8.62237 31.7171 8.64541 31.7394 8.65949C31.738 8.6787 31.7499 8.69668 31.7669 8.70563C31.763 8.712 31.7643 8.71972 31.7709 8.72355C31.7722 8.72355 31.7722 8.72484 31.7735 8.72484C31.7735 8.74276 31.7827 8.76068 31.7997 8.76963C31.7971 8.77735 31.7997 8.78631 31.8076 8.79014C31.8076 8.80806 31.8181 8.82473 31.8338 8.83369C31.8312 8.84135 31.8338 8.85031 31.8417 8.85544C31.8417 8.87335 31.8509 8.88873 31.8666 8.89769C31.864 8.9067 31.8679 8.91566 31.8758 8.91949C31.8745 8.93741 31.8837 8.95532 31.9008 8.96304C31.8981 8.9707 31.9008 8.98096 31.9086 8.98479C31.9073 9.0027 31.9178 9.01938 31.9335 9.02834C31.9309 9.03729 31.9348 9.04625 31.9427 9.05008C31.9414 9.06806 31.9506 9.08468 31.9663 9.09234C31.9624 9.10135 31.9663 9.11031 31.9755 9.11414C31.9742 9.13206 31.9834 9.14997 32.0005 9.15893C31.9965 9.16665 31.9991 9.17561 32.007 9.17944C32.007 9.19865 32.0161 9.21656 32.0332 9.22552C32.0293 9.23194 32.0319 9.2409 32.0398 9.24473C32.0372 9.27037 32.0503 9.29341 32.0713 9.30749C32.07 9.33313 32.0818 9.35876 32.104 9.37284C32.1015 9.39842 32.1132 9.42406 32.1355 9.43944C32.1316 9.46631 32.1447 9.49318 32.1684 9.50727C32.1657 9.53544 32.1789 9.56236 32.2011 9.58028C32.1985 9.58924 32.2011 9.59949 32.2103 9.60462C32.2077 9.62253 32.2169 9.64175 32.2339 9.6507C32.2287 9.65583 32.2287 9.66479 32.2339 9.66992C32.2313 9.69555 32.2431 9.71989 32.2641 9.73397C32.2628 9.76084 32.2733 9.78772 32.2956 9.80569C32.2929 9.81589 32.2969 9.82614 32.3048 9.83256C32.3021 9.85048 32.3126 9.86715 32.3284 9.87611C32.3244 9.88377 32.3271 9.89273 32.3349 9.89656C32.331 9.9222 32.3428 9.94783 32.3651 9.96192C32.3625 9.99008 32.3743 10.017 32.3966 10.0336C32.394 10.0439 32.3966 10.0541 32.4045 10.0605C32.4018 10.0848 32.4123 10.1092 32.4333 10.1233C32.4294 10.1501 32.4412 10.1783 32.4635 10.195C32.4609 10.2052 32.4635 10.2167 32.4727 10.2232C32.4688 10.2475 32.4805 10.2705 32.5002 10.2846C32.4976 10.3128 32.5081 10.3397 32.5304 10.3576C32.5278 10.3666 32.5304 10.3768 32.5383 10.3832C32.5344 10.4075 32.5449 10.4319 32.5658 10.4473C32.5619 10.4754 32.5737 10.5049 32.596 10.5228C32.592 10.5305 32.5947 10.5407 32.6026 10.5459C32.5986 10.5727 32.6091 10.5984 32.6314 10.615C32.6275 10.6252 32.6301 10.6355 32.638 10.6432C32.6341 10.6688 32.6446 10.6931 32.6655 10.7085C32.6616 10.738 32.6734 10.7661 32.6957 10.7854C32.6904 10.7917 32.6904 10.7994 32.6957 10.8058C32.6904 10.834 32.7023 10.8622 32.7246 10.8801C32.7193 10.8865 32.7193 10.8967 32.7246 10.9032C32.7206 10.93 32.7311 10.9582 32.7521 10.9762C32.7482 10.9851 32.7508 10.9941 32.7586 11.0005C32.7547 11.0274 32.7652 11.0543 32.7862 11.0722C32.7823 11.0812 32.7849 11.0914 32.7928 11.0978C32.7888 11.1247 32.798 11.1516 32.819 11.1695C32.8151 11.1785 32.8177 11.1887 32.8256 11.1952C32.8216 11.222 32.8321 11.2502 32.8531 11.2681C32.8465 11.2758 32.8465 11.2848 32.8531 11.2924C32.8478 11.3206 32.8583 11.3488 32.8793 11.368C32.8754 11.3757 32.8793 11.3847 32.8859 11.3898C32.8807 11.418 32.8912 11.4474 32.9122 11.4679C32.9069 11.473 32.9056 11.4807 32.9108 11.4859L32.9122 11.4871C32.9069 11.5242 32.9187 11.5601 32.9436 11.5883C32.9397 11.5985 32.9423 11.61 32.9502 11.6177C32.9449 11.6446 32.9541 11.6728 32.9751 11.6907C32.9699 11.6984 32.9699 11.7074 32.9751 11.715C32.9699 11.7509 32.9804 11.7868 33.0053 11.8137C33 11.8508 33.0119 11.8892 33.0367 11.9187C33.0315 11.9264 33.0315 11.9366 33.0367 11.9443C33.0302 11.9802 33.0407 12.0173 33.0656 12.0455C33.0604 12.0544 33.0604 12.066 33.0656 12.0749C33.0591 12.1031 33.0696 12.1326 33.0906 12.1518C33.0853 12.1569 33.084 12.1646 33.0892 12.1697L33.0906 12.171C33.0853 12.2106 33.0958 12.2504 33.1208 12.2811C33.1155 12.2862 33.1142 12.2939 33.1194 12.299L33.1208 12.3003C33.1142 12.34 33.1246 12.3797 33.1509 12.4104C33.1456 12.4155 33.1443 12.4245 33.1509 12.4309C33.1469 12.4758 33.1574 12.5219 33.1837 12.559C33.1785 12.5692 33.1785 12.5795 33.1837 12.5897C33.1771 12.6256 33.1876 12.664 33.2113 12.6922C33.206 12.6998 33.206 12.7114 33.2113 12.719C33.2034 12.7575 33.2126 12.7972 33.2388 12.8279L33.2467 12.8817C33.2388 12.9188 33.248 12.9585 33.2729 12.988C33.2677 12.9944 33.2677 13.0046 33.2729 13.011C33.265 13.0597 33.2768 13.1084 33.3031 13.1494L33.3109 13.207C33.3018 13.2441 33.3109 13.2838 33.3359 13.3145L33.3424 13.3683C33.3345 13.4157 33.3437 13.4657 33.37 13.5066L33.3779 13.5643C33.3687 13.6117 33.3779 13.6603 33.4041 13.7013L33.4106 13.7589C33.4002 13.8076 33.4106 13.8575 33.4369 13.8998V13.9536C33.429 14.0215 33.4395 14.0906 33.4671 14.1534C33.4605 14.161 33.4605 14.1726 33.4671 14.1802C33.4579 14.2597 33.4697 14.339 33.4985 14.4133V14.4735C33.4894 14.5529 33.4985 14.6336 33.5274 14.7091V14.7655C33.5182 14.8679 33.5274 14.9704 33.5563 15.069C33.5471 15.0972 33.5471 15.1279 33.5563 15.1561C33.5563 15.247 33.5563 15.3392 33.5563 15.4301C33.5497 15.4941 33.5589 15.5595 33.5812 15.621C33.5707 15.6824 33.5707 15.7439 33.5812 15.8054C33.5812 15.9783 33.5812 16.1511 33.5812 16.324C33.5366 16.324 33.492 16.324 33.45 16.324H27.5468C27.4917 16.3304 27.4353 16.324 27.3828 16.3048C27.3946 16.2023 27.3946 16.0974 27.3828 15.9949C27.3828 15.8809 27.3828 15.7682 27.3828 15.6543C27.3881 15.6107 27.3802 15.5659 27.3592 15.5262C27.3684 15.498 27.3684 15.4686 27.3592 15.4404C27.3697 15.3495 27.3592 15.2572 27.329 15.1701V15.1151C27.3395 15.0447 27.3304 14.973 27.3002 14.9089V14.8552C27.3094 14.7962 27.3002 14.7348 27.2713 14.6823V14.6272C27.2805 14.5785 27.27 14.5286 27.2438 14.4876V14.4325C27.2517 14.3851 27.2412 14.3377 27.2149 14.2981C27.2202 14.2891 27.2202 14.2789 27.2149 14.2699C27.2215 14.2251 27.211 14.1802 27.1861 14.1418C27.1913 14.1328 27.1913 14.1214 27.1861 14.1124C27.1939 14.0752 27.1835 14.0368 27.1598 14.0074C27.1651 13.9997 27.1651 13.9907 27.1598 13.983C27.1664 13.9446 27.1559 13.9036 27.131 13.8729C27.1362 13.8678 27.1375 13.8601 27.1323 13.855L27.131 13.8537C27.1375 13.8153 27.127 13.7743 27.1021 13.7435C27.1073 13.7384 27.1086 13.7295 27.1021 13.723C27.1086 13.6847 27.0969 13.645 27.0719 13.6155C27.0772 13.6091 27.0772 13.5989 27.0719 13.5925C27.0785 13.5553 27.068 13.5181 27.0418 13.49C27.047 13.481 27.047 13.4708 27.0418 13.4618C27.047 13.4336 27.0378 13.4055 27.0155 13.3863C27.0208 13.3811 27.0221 13.3722 27.0155 13.3658C27.0208 13.3286 27.009 13.2928 26.9841 13.2646C26.988 13.2544 26.9854 13.2428 26.9775 13.2352C26.9827 13.2083 26.9722 13.1826 26.9512 13.1647C26.9552 13.1558 26.9526 13.1442 26.9447 13.1378C26.9499 13.1109 26.9407 13.0828 26.9184 13.0648C26.9224 13.0559 26.9197 13.0456 26.9119 13.0405C26.9171 13.0136 26.9067 12.9854 26.8857 12.9675C26.8883 12.9585 26.8857 12.9483 26.8791 12.9419C26.883 12.915 26.8725 12.8894 26.8515 12.8714C26.8568 12.8638 26.8568 12.8522 26.8515 12.8446C26.8555 12.8189 26.845 12.7946 26.824 12.7793C26.8292 12.7434 26.8162 12.7075 26.7886 12.6832C26.7925 12.655 26.782 12.6269 26.7597 12.609C26.7623 12.5999 26.7597 12.591 26.7518 12.5846C26.7558 12.559 26.7453 12.5346 26.7243 12.5193C26.7283 12.4899 26.7164 12.4616 26.6928 12.4437C26.6968 12.4361 26.6941 12.4258 26.6863 12.422C26.6902 12.3963 26.6797 12.3708 26.6574 12.3554C26.66 12.3272 26.6482 12.299 26.6259 12.2811C26.6286 12.2721 26.6259 12.2632 26.6181 12.2568C26.6207 12.2324 26.6102 12.2081 26.5892 12.194C26.5931 12.1684 26.5813 12.1428 26.559 12.1274C26.5616 12.0993 26.5498 12.0723 26.5275 12.0557C26.5289 12.0468 26.5262 12.0365 26.5184 12.0301C26.5197 12.0122 26.5105 11.9955 26.4947 11.9865C26.4974 11.9789 26.4947 11.9686 26.4869 11.9648C26.4882 11.9456 26.4777 11.9289 26.4619 11.9187C26.4659 11.9123 26.4632 11.9046 26.4567 11.9007H26.4554C26.458 11.8752 26.4449 11.8508 26.4239 11.8367C26.4252 11.8111 26.4134 11.7868 26.3911 11.7727C26.3924 11.7471 26.3806 11.7228 26.3583 11.7087C26.3609 11.683 26.3478 11.6574 26.3242 11.6446C26.3255 11.619 26.3137 11.5934 26.2914 11.5793C26.2927 11.5537 26.2796 11.5294 26.2573 11.5153C26.2586 11.4897 26.2455 11.4654 26.2232 11.4526C26.2232 11.4334 26.2127 11.4154 26.1956 11.4051C26.1982 11.3975 26.1956 11.3898 26.1877 11.386C26.1891 11.368 26.1786 11.3514 26.1616 11.3437C26.1642 11.3347 26.1602 11.3257 26.1524 11.3219C26.155 11.3052 26.1445 11.2899 26.1274 11.2861C26.1287 11.2605 26.1156 11.2348 26.092 11.222C26.0933 11.1964 26.0789 11.1721 26.0566 11.1593C26.0566 11.1401 26.0461 11.1221 26.029 11.1132C26.0317 11.1055 26.0277 11.0965 26.0198 11.094C26.0225 11.0773 26.012 11.0607 25.9949 11.0581C25.9949 11.0581 25.9949 11.0581 25.9936 11.0581C25.9936 11.0325 25.9792 11.0082 25.9569 10.9941C25.9569 10.9684 25.9425 10.9454 25.9201 10.9339C25.9201 10.9172 25.9096 10.9019 25.8926 10.8967C25.8926 10.8699 25.8782 10.8455 25.8546 10.8327C25.8546 10.8135 25.8428 10.7956 25.8244 10.7879C25.827 10.7802 25.8231 10.7713 25.8152 10.7674C25.8165 10.7508 25.8047 10.7367 25.789 10.7341C25.789 10.7085 25.7746 10.6867 25.7509 10.6752C25.7509 10.6585 25.7391 10.6445 25.7234 10.6393C25.722 10.6137 25.7077 10.5907 25.6854 10.5792C25.6854 10.5612 25.6735 10.5459 25.6565 10.542C25.6565 10.5164 25.642 10.4934 25.6185 10.4818C25.6185 10.4652 25.6067 10.4498 25.5896 10.446C25.5896 10.4203 25.5751 10.3986 25.5515 10.387C25.5528 10.3704 25.541 10.355 25.524 10.3512C25.5227 10.332 25.5096 10.3153 25.4925 10.3064C25.4938 10.2974 25.4899 10.2885 25.4807 10.2859C25.4807 10.2705 25.4702 10.2577 25.4558 10.2552C25.4544 10.2372 25.4413 10.2232 25.4243 10.2193C25.423 10.1937 25.4086 10.1719 25.3849 10.1604C25.3849 10.1438 25.3731 10.1297 25.3574 10.1258C25.3561 10.1079 25.3429 10.0938 25.3259 10.09C25.3246 10.0643 25.3089 10.0426 25.2852 10.0323C25.2852 10.0157 25.2734 10.0016 25.2564 9.99904C25.255 9.98113 25.242 9.96704 25.2249 9.96315C25.2236 9.93887 25.2078 9.91577 25.1842 9.90682C25.1842 9.89149 25.1724 9.87865 25.1567 9.87611C25.1554 9.85944 25.1436 9.84535 25.1265 9.84152C25.1252 9.82361 25.1121 9.80822 25.0937 9.80569C25.0924 9.78135 25.0766 9.75955 25.0531 9.75059V9.74417C25.0531 9.72884 25.0426 9.716 25.0268 9.71346C25.0268 9.69679 25.0137 9.6827 24.9966 9.68017C24.9953 9.66349 24.9822 9.64941 24.9652 9.64558C24.9639 9.62766 24.9494 9.61228 24.931 9.60975C24.9219 9.57132 24.8943 9.53803 24.8576 9.52011C24.8563 9.50473 24.8445 9.49194 24.8287 9.48935C24.8274 9.47273 24.8143 9.45865 24.7972 9.45606C24.7946 9.43944 24.7815 9.42535 24.7645 9.42276C24.7618 9.40485 24.7487 9.39076 24.7303 9.38693C24.729 9.36896 24.7146 9.35363 24.6962 9.35104C24.6962 9.33313 24.6805 9.31775 24.6621 9.31645C24.6424 9.26524 24.6044 9.22298 24.5546 9.19611C24.5546 9.18073 24.5414 9.16794 24.5257 9.16665C24.5257 9.15127 24.5125 9.13848 24.4969 9.13718C24.4942 9.1218 24.4811 9.10901 24.4654 9.10642C24.464 9.0898 24.4509 9.07701 24.4338 9.07572C24.4325 9.05904 24.4194 9.04625 24.4024 9.04496C24.4011 9.02834 24.388 9.01555 24.3709 9.01425C24.3696 8.99758 24.3565 8.98479 24.3394 8.98349C24.3381 8.96687 24.325 8.95408 24.3079 8.95279C24.3053 8.93611 24.2922 8.92332 24.2751 8.92079C24.2738 8.90411 24.2607 8.89132 24.2436 8.89132C24.2423 8.87594 24.2279 8.86315 24.2122 8.86186C24.2096 8.84648 24.1964 8.83369 24.1807 8.83239C24.1794 8.81701 24.1649 8.80422 24.1492 8.80293C24.1479 8.78761 24.1361 8.77606 24.1204 8.77606C24.0941 8.72738 24.0495 8.69025 23.997 8.67104C23.9944 8.65313 23.9787 8.63904 23.9603 8.63775C23.9576 8.61983 23.942 8.60575 23.9236 8.60445C23.921 8.58653 23.9065 8.57369 23.8881 8.57245C23.8855 8.55577 23.8711 8.54169 23.8541 8.54039C23.8514 8.52507 23.8383 8.51223 23.8213 8.51099C23.8186 8.49561 23.8055 8.48406 23.7897 8.48282C23.7727 8.44693 23.7386 8.42006 23.6979 8.41234C23.694 8.39442 23.6795 8.38163 23.6612 8.38034C23.6586 8.36372 23.6442 8.35087 23.6271 8.34963C23.6245 8.33425 23.6113 8.32141 23.5943 8.32141C23.5746 8.28558 23.5405 8.25994 23.4998 8.25099C23.4972 8.23307 23.4828 8.22028 23.4644 8.22028C23.4618 8.2036 23.4474 8.19211 23.4303 8.19211C23.4198 8.16901 23.3975 8.15369 23.3713 8.15239C23.3674 8.13448 23.3516 8.12293 23.3332 8.12163C23.3306 8.10501 23.3149 8.09222 23.2979 8.09093C23.2952 8.07555 23.2808 8.0653 23.265 8.0653C23.2545 8.04225 23.2322 8.02817 23.2073 8.02687C23.2034 8.01025 23.1877 7.9987 23.1706 7.99746C23.168 7.98208 23.1535 7.97053 23.1378 7.97183H23.1312C23.1208 7.94879 23.0985 7.9347 23.0735 7.9347C23.0709 7.91803 23.0551 7.90524 23.0381 7.90524C23.0276 7.8822 23.004 7.86682 22.9777 7.86682C22.9751 7.85014 22.9594 7.83735 22.941 7.83735C22.9384 7.82197 22.924 7.81048 22.9069 7.81177H22.9004C22.8899 7.78997 22.8675 7.77589 22.8427 7.77589C22.84 7.75927 22.8243 7.74772 22.8072 7.74901C22.7967 7.72597 22.7731 7.71189 22.7482 7.71313C22.7456 7.69651 22.7298 7.68496 22.7128 7.68625C22.701 7.66451 22.6773 7.65037 22.6524 7.65037C22.6498 7.63375 22.6354 7.6222 22.6183 7.62349H22.6118C22.6012 7.60175 22.5776 7.58766 22.5527 7.5889C22.5409 7.56586 22.5147 7.55177 22.4884 7.55307C22.4845 7.53515 22.4688 7.52361 22.4504 7.5262C22.4373 7.50439 22.4137 7.49031 22.3874 7.4916C22.3848 7.47493 22.3691 7.46468 22.3533 7.46727C22.3533 7.46727 22.3533 7.46727 22.352 7.46727C22.3481 7.45961 22.3402 7.45448 22.331 7.45701C22.3218 7.44039 22.3048 7.43014 22.2864 7.43014C22.2733 7.4071 22.2484 7.39425 22.2221 7.39555C22.2103 7.37251 22.1841 7.35842 22.1579 7.35972C22.1539 7.34304 22.1382 7.33149 22.1198 7.33279C22.1067 7.31104 22.0831 7.29949 22.0582 7.30079C22.045 7.27775 22.0188 7.2649 21.9926 7.26749C21.9795 7.24445 21.9545 7.23037 21.927 7.2329C21.9138 7.20986 21.889 7.19577 21.8614 7.19831C21.8574 7.18169 21.8417 7.17014 21.8246 7.17273L21.8155 7.16501H21.8037C21.7945 7.14839 21.7774 7.13814 21.7577 7.13944C21.7446 7.11893 21.721 7.10614 21.6961 7.10868C21.683 7.08822 21.6594 7.07538 21.6345 7.07668C21.6213 7.05493 21.5964 7.04338 21.5715 7.04592C21.5583 7.02546 21.5335 7.01262 21.5085 7.01521C21.4954 6.9947 21.4718 6.98191 21.4469 6.98575L21.5138 7.04208H21.502C21.4928 7.02676 21.4744 7.01651 21.456 7.01775C21.4508 7.01008 21.4416 7.00755 21.4324 7.00879C21.4154 6.98575 21.3865 6.97425 21.3577 6.97808C21.3446 6.95504 21.317 6.94349 21.2907 6.94732C21.2763 6.92558 21.2514 6.91403 21.2252 6.91786C21.212 6.89611 21.1871 6.88586 21.1622 6.88969L21.1517 6.88203H21.1386C21.1202 6.86022 21.0913 6.84873 21.0625 6.85127C21.0481 6.82952 21.0218 6.81797 20.9956 6.82186C20.972 6.79622 20.9352 6.78344 20.8998 6.78727C20.8854 6.76546 20.8592 6.75397 20.8329 6.7591C20.8093 6.73346 20.7726 6.72068 20.7372 6.72451C20.7227 6.70276 20.6965 6.69251 20.6703 6.69763L20.6584 6.68992H20.6453C20.6269 6.66817 20.5981 6.65792 20.5692 6.66175H20.5601H20.5482C20.5286 6.64 20.4997 6.62975 20.4709 6.63358C20.4459 6.60794 20.4092 6.59645 20.3738 6.60158C20.3488 6.57594 20.3121 6.56315 20.2767 6.56958C20.2505 6.54394 20.2138 6.53239 20.1783 6.53882C20.1521 6.51448 20.1154 6.50299 20.0799 6.50935L20.0694 6.50169H20.0577C20.0275 6.47606 19.9881 6.4658 19.9488 6.47223C19.9225 6.44535 19.8845 6.4338 19.8478 6.44146L19.8386 6.4351H19.8268C19.7966 6.40946 19.7559 6.39797 19.7166 6.40563C19.6799 6.37746 19.6313 6.36591 19.5854 6.37363C19.5487 6.34546 19.5015 6.33262 19.4542 6.34034C19.4161 6.31341 19.3689 6.30192 19.323 6.30958L19.3126 6.30321H19.302C19.26 6.27628 19.2076 6.26479 19.1577 6.27375C19.1079 6.24428 19.0488 6.23149 18.9911 6.24045C18.94 6.21099 18.8809 6.20073 18.8232 6.20969H18.8127H18.7996C18.7458 6.18152 18.6841 6.17256 18.6238 6.18152H18.612H18.5989C18.5333 6.15335 18.4612 6.1431 18.3903 6.15206L18.3785 6.14569H18.3654C18.288 6.11752 18.2054 6.10727 18.124 6.11623H18.0676C17.9561 6.08546 17.8394 6.07521 17.7239 6.08676L17.7108 6.08034H17.6964C17.6557 6.06113 17.6098 6.05217 17.5652 6.0573C17.1717 6.04321 16.7715 6.04321 16.374 6.0573C16.3295 6.05346 16.2835 6.06113 16.2429 6.08034H16.1851C16.071 6.06884 15.9556 6.0778 15.8454 6.1098H15.831H15.8191C15.7273 6.10084 15.6342 6.1111 15.5476 6.1418H15.5332L15.5188 6.14822C15.4505 6.13673 15.3797 6.14693 15.3181 6.17769C15.2498 6.16873 15.1816 6.17899 15.12 6.20969C15.0596 6.20203 14.9993 6.21228 14.9455 6.24045H14.9337L14.9219 6.24682C14.872 6.23915 14.8209 6.24811 14.7789 6.27499H14.7658L14.7553 6.28141C14.7093 6.27375 14.6621 6.28524 14.6241 6.31217C14.5756 6.30445 14.5244 6.3147 14.4837 6.34287H14.4706L14.4588 6.35059C14.4194 6.34287 14.3788 6.35313 14.3486 6.37746H14.3368L14.3263 6.38513C14.287 6.37746 14.2476 6.38901 14.2174 6.4133H14.2043L14.1925 6.42101C14.1558 6.4133 14.1177 6.42355 14.0915 6.44918C14.0521 6.44146 14.0115 6.45301 13.9813 6.47865H13.9695L13.959 6.48631C13.9223 6.47989 13.8855 6.49144 13.8593 6.51577C13.8226 6.50935 13.7858 6.5209 13.7596 6.54648C13.7229 6.54011 13.6848 6.55161 13.6586 6.57853C13.6219 6.57853 13.5838 6.57853 13.5589 6.61183C13.5222 6.60541 13.4841 6.6182 13.4592 6.64513C13.4225 6.6387 13.3858 6.65149 13.3608 6.67842C13.3254 6.6733 13.2887 6.68479 13.2637 6.71172C13.2349 6.70789 13.206 6.71808 13.1877 6.73989H13.1745L13.1653 6.74755C13.1391 6.74242 13.1116 6.75397 13.0971 6.77572C13.0617 6.77189 13.025 6.78468 13.0014 6.81031C12.9751 6.80648 12.9489 6.81797 12.9344 6.83977C12.9056 6.83594 12.8754 6.84744 12.8571 6.86924H12.8452L12.8361 6.8769C12.8099 6.87307 12.7836 6.88332 12.7692 6.90507C12.743 6.90124 12.7167 6.91273 12.7023 6.93453C12.6734 6.93194 12.6446 6.94349 12.6262 6.96653H12.6131L12.6039 6.97549C12.5789 6.97166 12.5541 6.98321 12.5396 7.00366C12.5134 7.00113 12.4884 7.01262 12.474 7.03442C12.4478 7.03059 12.4215 7.04208 12.4071 7.06513C12.3809 7.0613 12.3533 7.07414 12.3402 7.09718C12.314 7.09335 12.2864 7.10614 12.2733 7.12918C12.2471 7.12535 12.2208 7.13814 12.2064 7.16118C12.1789 7.15735 12.1526 7.17144 12.1395 7.19448C12.1133 7.19194 12.0871 7.20344 12.0739 7.22653C12.0477 7.22394 12.0214 7.23673 12.0083 7.25983C11.9821 7.25853 11.9572 7.27132 11.944 7.29313C11.9178 7.29053 11.8942 7.30332 11.8811 7.32513C11.8561 7.32383 11.8325 7.33662 11.8194 7.35713C11.8024 7.35583 11.7866 7.36608 11.7827 7.38276C11.7551 7.38017 11.7302 7.39425 11.7171 7.4173C11.6909 7.41606 11.6659 7.42884 11.6528 7.45189C11.6279 7.45059 11.6043 7.46344 11.5912 7.48389C11.5741 7.48265 11.5584 7.49414 11.5544 7.51082C11.5282 7.50952 11.502 7.52231 11.4888 7.54541C11.4639 7.54411 11.439 7.5569 11.4272 7.5787C11.4101 7.5787 11.3944 7.5889 11.3905 7.60558C11.3642 7.60428 11.3393 7.61837 11.3262 7.64141C11.3078 7.64017 11.2921 7.65296 11.2881 7.66958C11.2606 7.66834 11.2357 7.68242 11.2239 7.70676C11.1989 7.70676 11.1766 7.72084 11.1648 7.74259C11.1478 7.7413 11.132 7.75284 11.1294 7.76946C11.1045 7.76946 11.0822 7.78231 11.0704 7.80406C11.0533 7.80276 11.0389 7.81431 11.0363 7.83099C11.0113 7.83099 10.9877 7.84507 10.9773 7.86682H10.9707C10.9536 7.86552 10.9392 7.87707 10.9366 7.89369C10.9182 7.89245 10.9011 7.90524 10.8985 7.92315C10.871 7.92315 10.8474 7.93724 10.8356 7.96158C10.8172 7.96158 10.8027 7.97437 10.7989 7.99104C10.7739 7.99234 10.7503 8.00642 10.7398 8.02946C10.7227 8.02817 10.7083 8.03972 10.7057 8.05634C10.6873 8.05634 10.6716 8.06913 10.669 8.0871C10.6427 8.0871 10.6191 8.10242 10.6086 8.12552C10.5916 8.12422 10.5758 8.13701 10.5732 8.15369C10.5548 8.15493 10.5404 8.16777 10.5364 8.18439C10.5102 8.18569 10.4879 8.20107 10.4774 8.22411C10.4604 8.22411 10.4459 8.23561 10.4433 8.25228C10.4263 8.25358 10.4105 8.26637 10.4079 8.28304C10.383 8.28304 10.3594 8.29837 10.3502 8.32141H10.3436C10.3279 8.32017 10.3148 8.33166 10.3135 8.34704C10.2964 8.34704 10.282 8.35859 10.2793 8.37521C10.261 8.37651 10.2465 8.3893 10.244 8.40721C10.2256 8.40851 10.2098 8.4213 10.2059 8.43927C10.181 8.44051 10.1573 8.45589 10.1482 8.47893C10.1324 8.47893 10.118 8.49048 10.1154 8.50586C10.0983 8.50586 10.0839 8.51865 10.0812 8.53532C10.0629 8.53656 10.0485 8.54941 10.0459 8.56732C10.0275 8.56862 10.0117 8.58141 10.0091 8.59932C9.96973 8.60828 9.93566 8.63521 9.9186 8.67104C9.90284 8.67104 9.88972 8.68259 9.88841 8.69792C9.87271 8.69921 9.85958 8.71076 9.85696 8.72608C9.8399 8.72738 9.82677 8.74017 9.82415 8.75684C9.80708 8.75814 9.79264 8.77093 9.79002 8.7876C9.77301 8.79014 9.75857 8.80293 9.75595 8.8196C9.73757 8.82214 9.72444 8.83498 9.72182 8.8529C9.70344 8.8542 9.689 8.86828 9.68643 8.8862C9.66806 8.88749 9.6523 8.90158 9.65099 8.91949C9.63262 8.92079 9.61818 8.93487 9.61555 8.95279C9.59717 8.95408 9.58148 8.96817 9.57885 8.98608C9.55917 8.98738 9.54473 9.00146 9.54341 9.02068C9.52504 9.02191 9.50928 9.0373 9.50797 9.05521C9.48834 9.05651 9.4739 9.07189 9.47128 9.0898C9.4529 9.09234 9.43846 9.10642 9.43583 9.12439C9.41746 9.12563 9.40176 9.14101 9.40045 9.15893C9.38207 9.16152 9.36764 9.1756 9.36632 9.19352C9.34795 9.19482 9.3322 9.2102 9.33088 9.22811C9.31256 9.23065 9.29812 9.24603 9.2955 9.26394C9.27712 9.26653 9.26268 9.28062 9.26006 9.29853C9.24168 9.30113 9.22724 9.31521 9.22467 9.33313C9.2063 9.33566 9.19186 9.34975 9.19055 9.36772C9.17217 9.37025 9.15773 9.38434 9.15642 9.40225C9.13935 9.40484 9.12497 9.41893 9.12235 9.43555C9.10528 9.43814 9.09216 9.45222 9.08953 9.46884C9.07247 9.47144 9.05934 9.48552 9.05803 9.50214C9.04102 9.50473 9.02921 9.51752 9.02789 9.5342C9.01214 9.53544 9.00033 9.54828 9.00033 9.56361C8.9767 9.57262 8.95964 9.59437 8.95832 9.6187C8.94001 9.62124 8.92557 9.63662 8.92425 9.65454C8.90588 9.65842 8.89275 9.67251 8.89013 9.69042C8.87306 9.69296 8.85993 9.70834 8.85862 9.72501C8.84162 9.72755 8.82849 9.74163 8.82718 9.75831C8.81143 9.76084 8.79961 9.77493 8.79961 9.79031C8.77598 9.79927 8.75898 9.82101 8.75766 9.84665C8.73929 9.85048 8.72616 9.86586 8.72485 9.88377C8.70778 9.88636 8.69466 9.90169 8.69335 9.91837C8.67628 9.9209 8.66321 9.93499 8.66321 9.95166C8.64877 9.9542 8.63696 9.96704 8.63696 9.98113V9.98749C8.61333 9.99645 8.59758 10.0195 8.59627 10.0439C8.5792 10.0477 8.56614 10.063 8.56482 10.0797C8.54776 10.0835 8.53594 10.0976 8.53594 10.1143C8.51232 10.1258 8.49657 10.1476 8.49525 10.1732C8.47693 10.1758 8.46381 10.1912 8.46249 10.2091C8.44543 10.2129 8.43362 10.227 8.4323 10.2437C8.40868 10.2539 8.39298 10.277 8.39167 10.3025C8.37329 10.3064 8.36148 10.3217 8.36017 10.3397C8.3431 10.3423 8.32998 10.3576 8.33129 10.3743C8.30897 10.3858 8.29328 10.4075 8.29197 10.4332C8.2749 10.437 8.26178 10.4511 8.26178 10.469C8.24603 10.4716 8.23552 10.4844 8.23684 10.4998C8.22765 10.5036 8.2224 10.5126 8.22502 10.5215C8.2067 10.5292 8.19489 10.5459 8.19489 10.5651C8.17914 10.5676 8.16733 10.5817 8.16864 10.5971C8.16076 10.5997 8.15551 10.6086 8.15814 10.6163C8.14107 10.6252 8.12926 10.6432 8.12663 10.6624C8.10963 10.6663 8.09781 10.6816 8.09912 10.6983C8.07681 10.7098 8.06237 10.7328 8.06106 10.7572C8.04531 10.761 8.03349 10.7751 8.03481 10.7917C8.02693 10.7943 8.02305 10.802 8.02562 10.8097C8.00861 10.8186 7.9968 10.8366 7.99417 10.8558C7.97842 10.8583 7.96661 10.8737 7.96923 10.8891C7.96004 10.8916 7.95611 10.9006 7.95742 10.9096C7.94035 10.9185 7.92985 10.9352 7.9286 10.9544C7.90497 10.9659 7.88922 10.9903 7.89053 11.0171C7.87347 11.021 7.86165 11.0363 7.86297 11.0543C7.84065 11.0658 7.82758 11.0888 7.82758 11.1132C7.80396 11.126 7.78952 11.1503 7.79083 11.1772C7.77377 11.1811 7.76326 11.1964 7.76458 11.2131C7.75801 11.2156 7.75408 11.222 7.75539 11.2297C7.75539 11.231 7.75539 11.231 7.7567 11.231C7.73838 11.2399 7.72788 11.2579 7.72788 11.2784C7.70557 11.2924 7.69113 11.3168 7.69244 11.3424C7.66881 11.3565 7.65437 11.3808 7.65569 11.4077C7.63868 11.4115 7.62818 11.4269 7.62949 11.4435C7.62161 11.4474 7.61899 11.4564 7.62161 11.4641C7.60455 11.4743 7.59405 11.4909 7.59405 11.5101C7.57173 11.5242 7.55998 11.5473 7.55998 11.5729C7.53766 11.587 7.52454 11.6113 7.52585 11.637C7.50354 11.651 7.49041 11.6766 7.49172 11.7023C7.46941 11.7176 7.45634 11.742 7.45765 11.7688C7.43402 11.7816 7.4209 11.8073 7.42352 11.8341C7.39989 11.8482 7.38677 11.8726 7.38939 11.8995C7.36714 11.9148 7.35401 11.9392 7.35532 11.9661C7.33301 11.9814 7.31988 12.0057 7.32251 12.0327C7.30019 12.0468 7.28707 12.0723 7.291 12.098C7.27006 12.1121 7.25824 12.1364 7.26087 12.162C7.25431 12.1646 7.25037 12.1722 7.253 12.1786C7.253 12.1799 7.25431 12.1812 7.25431 12.1812C7.23724 12.1902 7.22806 12.2081 7.22937 12.226C7.22149 12.2312 7.21887 12.2414 7.22149 12.2504C7.19786 12.267 7.18611 12.2952 7.18873 12.3234C7.16642 12.3375 7.1546 12.3643 7.15854 12.39C7.13623 12.4041 7.12441 12.4283 7.12835 12.454C7.12048 12.4591 7.11785 12.4681 7.12048 12.477C7.09816 12.495 7.08641 12.5232 7.08903 12.5513C7.06672 12.5666 7.0549 12.5923 7.05884 12.6179C7.05359 12.6243 7.05359 12.6332 7.05884 12.6397C7.03653 12.6576 7.02471 12.687 7.02865 12.7152C7.00765 12.7306 6.99589 12.7562 6.99983 12.7818C6.99458 12.7895 6.99458 12.7985 6.99983 12.8061C6.97751 12.8241 6.96701 12.851 6.97095 12.8792C6.94339 12.9035 6.93026 12.9393 6.93551 12.9752C6.91451 12.9905 6.90406 13.0162 6.90931 13.0405C6.90144 13.0482 6.89881 13.0584 6.90144 13.0687C6.88044 13.0853 6.86994 13.1122 6.87519 13.1391C6.86731 13.1455 6.86469 13.1558 6.86731 13.166C6.84631 13.1839 6.83581 13.2095 6.84106 13.2364C6.83318 13.2428 6.83056 13.2544 6.8345 13.2633C6.81355 13.2812 6.80436 13.3069 6.8083 13.3337C6.80042 13.3415 6.7978 13.3517 6.80174 13.3619C6.7768 13.3901 6.76498 13.4273 6.77023 13.4644C6.74398 13.49 6.73217 13.5259 6.73873 13.5617C6.73348 13.5694 6.73348 13.5784 6.73873 13.586C6.71253 13.6142 6.70072 13.6526 6.70728 13.691C6.68234 13.7167 6.67184 13.7538 6.67841 13.7884C6.67316 13.7961 6.67316 13.8076 6.67841 13.8153C6.65347 13.8434 6.64297 13.8819 6.64953 13.919C6.64428 13.9267 6.64428 13.9369 6.64953 13.9446C6.62465 13.9741 6.61546 14.0125 6.62202 14.0496C6.61677 14.0573 6.61677 14.0675 6.62202 14.0752C6.59708 14.1047 6.58789 14.1418 6.59446 14.179C6.58921 14.1879 6.58921 14.1994 6.59446 14.2084C6.5682 14.2456 6.5577 14.2917 6.56427 14.3365C6.5577 14.3442 6.5577 14.3557 6.56427 14.3634C6.53807 14.4031 6.52757 14.4517 6.53544 14.4991C6.53019 14.5068 6.53019 14.5183 6.53544 14.526C6.50919 14.5657 6.49869 14.6144 6.50788 14.6604C6.50788 14.6797 6.50788 14.6989 6.50788 14.7168C6.48163 14.7591 6.47244 14.8078 6.48031 14.8564C6.48031 14.8756 6.48031 14.8948 6.48031 14.914C6.45275 14.9665 6.44231 15.0255 6.45275 15.0831C6.45275 15.1035 6.45275 15.1228 6.45275 15.142C6.38061 15.2009 6.32554 15.279 6.29666 15.3661V15.4224C6.26647 15.5198 6.25603 15.6222 6.26778 15.7234C6.25734 15.7618 6.25734 15.8041 6.26778 15.8425C6.24684 15.8873 6.23896 15.9359 6.24421 15.9846C6.24421 16.146 6.24421 16.3086 6.23634 16.47C6.1642 16.47 6.09201 16.4764 6.02118 16.4764H0.161295C0.129812 16.4764 0.0943926 16.4764 0.0681561 16.4508C0.0563498 16.388 0.0537262 16.324 0.0589734 16.2599C0.0589734 16.0487 0.0589734 15.8386 0.0655325 15.6273C0.0747152 15.5531 0.0878335 15.4775 0.0917691 15.402C0.108822 15.051 0.149489 14.7015 0.194091 14.3531C0.254434 13.8742 0.338391 13.4003 0.444648 12.9304C1.67907 7.48648 5.64601 3.01841 10.9916 1.05394C11.9729 0.694096 12.9869 0.426445 14.0194 0.254842C14.4247 0.18697 14.83 0.126781 15.238 0.0922045C15.5752 0.0601887 15.9123 0.0294541 16.2508 0.0294541C16.4449 0.0448215 16.6443 0.0294541 16.8319 0.0294541C16.8542 0.0281735 16.8752 0.0179286 16.8896 0H16.9893C17.0024 0.0179286 17.0234 0.0281735 17.0457 0.0294541C17.228 0.0294541 17.4104 0.0435409 17.594 0.0294541H17.922C17.985 0.0422603 18.0492 0.0448215 18.1136 0.0371378C18.2014 0.064031 18.2946 0.0729949 18.3864 0.0627499C18.4297 0.0729949 18.4743 0.075556 18.5176 0.0691532C18.5818 0.0960462 18.6527 0.10373 18.7222 0.0934851C18.8232 0.0973267 18.9229 0.108852 19.0213 0.126781L19.1158 0.134465C19.1682 0.160077 19.2286 0.170322 19.2876 0.160077H19.3519C19.4044 0.18697 19.4634 0.195934 19.5211 0.18697L19.5815 0.193373C19.6234 0.217704 19.672 0.227949 19.7205 0.218985L19.7822 0.225388C19.8228 0.251001 19.8727 0.261246 19.9212 0.252281L19.9789 0.258684C20.0091 0.281735 20.0485 0.2907 20.0865 0.283016L20.1495 0.2907C20.1783 0.31247 20.2164 0.321434 20.2531 0.315031L20.3161 0.322715C20.3449 0.345766 20.383 0.35473 20.4197 0.347047L20.48 0.356011C20.5102 0.379062 20.5482 0.388026 20.5863 0.381623H20.6191C20.6479 0.403394 20.6847 0.412358 20.7201 0.407235L20.7792 0.4162C20.8093 0.440531 20.8487 0.449496 20.8867 0.443093C20.8959 0.448215 20.9064 0.448215 20.9156 0.443093C20.9444 0.466144 20.9838 0.476389 21.0205 0.469985C21.0297 0.475108 21.0402 0.475108 21.0494 0.469985C21.0783 0.494317 21.1163 0.503282 21.153 0.496878C21.1622 0.502001 21.1727 0.502001 21.1818 0.496878C21.2107 0.52121 21.2488 0.531455 21.2868 0.526332C21.2947 0.532736 21.3039 0.532736 21.3117 0.526332C21.3301 0.546822 21.359 0.555787 21.3865 0.550664L21.4206 0.557068C21.4482 0.581397 21.4849 0.591645 21.5203 0.585239C21.5295 0.591645 21.54 0.591645 21.5492 0.585239C21.5662 0.60573 21.5925 0.614693 21.6187 0.609572L21.6738 0.61982C21.6935 0.641589 21.725 0.651831 21.7538 0.645431C21.7604 0.653115 21.7709 0.655673 21.7801 0.651831C21.7984 0.672321 21.8259 0.681284 21.8522 0.676163C21.8627 0.681284 21.8732 0.681284 21.8837 0.676163C21.9008 0.695375 21.9256 0.705617 21.9519 0.700496L21.986 0.70818C22.0135 0.732513 22.0503 0.744039 22.087 0.738913C22.0923 0.744039 22.1014 0.745318 22.108 0.738913C22.1277 0.760687 22.1579 0.77093 22.1867 0.765808C22.1933 0.77093 22.2024 0.77093 22.209 0.765808C22.2274 0.787577 22.2576 0.797825 22.2864 0.792699C22.293 0.797825 22.3021 0.797825 22.3087 0.792699C22.3271 0.814473 22.3573 0.825994 22.3861 0.820873C22.3927 0.825994 22.4018 0.825994 22.4084 0.820873C22.4268 0.842642 22.457 0.85289 22.4858 0.847769C22.5002 0.866975 22.5239 0.877222 22.5488 0.87338L22.5829 0.881065C22.5986 0.901555 22.6249 0.911797 22.6498 0.906676C22.6576 0.91436 22.6694 0.916918 22.68 0.914361C22.6694 0.951499 22.6905 0.989915 22.7285 1.00016C22.7351 1.00272 22.743 1.00272 22.7508 1.00272Z" fill="white"/>
<path d="M1.13201 20.5321C1.20547 20.5462 1.28155 20.5488 1.35633 20.5398C1.47964 20.5654 1.60557 20.5744 1.73151 20.5641C1.79448 20.5769 1.85876 20.5808 1.92304 20.5718C2.03454 20.5987 2.14998 20.6077 2.26411 20.5974C2.31396 20.6115 2.36774 20.6153 2.4189 20.6051C2.50942 20.632 2.60387 20.6397 2.69701 20.6294C2.74686 20.6435 2.79933 20.6461 2.85049 20.6372C2.9292 20.664 3.01447 20.6717 3.09711 20.6615C3.13909 20.6756 3.18501 20.6781 3.22829 20.6691C3.30569 20.6948 3.38702 20.7037 3.46836 20.6948C3.50771 20.7076 3.54969 20.7101 3.59036 20.7024C3.65726 20.7281 3.73072 20.737 3.80156 20.7268C3.84091 20.7396 3.88158 20.7434 3.92225 20.7344C3.97865 20.7601 4.04031 20.7677 4.10197 20.7588C4.14132 20.7716 4.1833 20.7742 4.22396 20.7677C4.27906 20.7934 4.34072 20.801 4.40106 20.7908C4.43254 20.8023 4.46534 20.8062 4.49813 20.7998C4.56241 20.8254 4.63194 20.8331 4.70147 20.8254C4.72901 20.8382 4.75919 20.8408 4.78805 20.8318C4.84314 20.8587 4.90611 20.8676 4.96776 20.8587H5.03073C5.08321 20.8843 5.14355 20.8933 5.20127 20.8843C5.22882 20.8958 5.2603 20.8997 5.29047 20.892C5.33376 20.9163 5.38492 20.9253 5.43346 20.9163C5.46232 20.9279 5.4938 20.9304 5.52529 20.9253C5.56858 20.9496 5.61843 20.9573 5.66697 20.9483C5.69451 20.9612 5.72601 20.9637 5.75614 20.9573C5.79946 20.9816 5.8506 20.9906 5.90048 20.9816L5.96474 20.9893C6.00412 21.0111 6.05 21.02 6.09594 21.0137C6.12345 21.0251 6.15495 21.029 6.18514 21.0226C6.2284 21.0482 6.2796 21.0572 6.32942 21.0482H6.38849C6.43043 21.0725 6.48031 21.0815 6.52882 21.0738L6.58784 21.0815C6.62984 21.1058 6.68097 21.1161 6.72954 21.1071L6.78462 21.1135C6.81612 21.1378 6.85681 21.1455 6.89613 21.1366L6.96039 21.1442C6.99977 21.1686 7.04566 21.1775 7.0916 21.1712L7.15061 21.1788C7.1808 21.2019 7.22018 21.2095 7.25819 21.2019L7.32245 21.2095C7.36052 21.2352 7.40777 21.2441 7.45366 21.2365H7.48647C7.52579 21.2608 7.57173 21.271 7.61762 21.2633C7.63337 21.2736 7.65175 21.2774 7.67012 21.2711C7.70157 21.2953 7.74358 21.3044 7.78295 21.2953L7.83803 21.3031C7.86953 21.3274 7.91016 21.3377 7.94954 21.3286H7.98493C8.02299 21.3543 8.07019 21.3645 8.11613 21.3568H8.14764C8.17514 21.3799 8.21321 21.3889 8.24859 21.3811L8.31029 21.3901C8.33916 21.4144 8.37849 21.4234 8.41524 21.4144L8.469 21.4234C8.5005 21.449 8.54245 21.458 8.58183 21.449C8.58839 21.4593 8.60152 21.4618 8.61202 21.4555C8.64084 21.4785 8.67759 21.4875 8.71429 21.4798L8.76942 21.4888C8.80092 21.5131 8.84287 21.5233 8.88225 21.5156C8.89013 21.5221 8.90057 21.5221 8.90844 21.5156C8.93863 21.5387 8.9767 21.5476 9.01471 21.5413H9.04621C9.07378 21.5656 9.11179 21.5746 9.14723 21.5668L9.18261 21.5733C9.21018 21.5963 9.24562 21.6053 9.281 21.5989L9.33613 21.6079C9.35582 21.6283 9.38596 21.6373 9.41352 21.6309L9.47122 21.6411C9.49091 21.6616 9.51979 21.6706 9.54729 21.6629L9.60636 21.6731C9.62474 21.6937 9.65356 21.7026 9.68113 21.6949L9.73751 21.7051C9.75589 21.7257 9.78608 21.7346 9.81364 21.7282L9.87003 21.7384C9.88972 21.7602 9.91985 21.7692 9.94742 21.7615H9.98286C10.0091 21.7846 10.0445 21.7948 10.0799 21.7884L10.114 21.7948C10.1403 21.8191 10.1783 21.8294 10.2137 21.8217C10.2216 21.8307 10.2334 21.8332 10.2439 21.8281C10.2715 21.8524 10.3108 21.864 10.3475 21.8563C10.3528 21.8627 10.3633 21.864 10.3699 21.8588C10.3712 21.8575 10.3725 21.8575 10.3725 21.8563C10.3908 21.8768 10.4197 21.8857 10.4472 21.8793L10.4826 21.887C10.5089 21.9113 10.5456 21.9216 10.581 21.9139C10.5876 21.9229 10.5994 21.9254 10.6099 21.9203C10.6388 21.9459 10.6768 21.9562 10.7148 21.9498L10.724 21.9574H10.7358C10.7542 21.9792 10.7857 21.9882 10.8132 21.9805L10.8447 21.9882C10.8722 22.0125 10.9103 22.024 10.947 22.0164C10.9509 22.0228 10.9588 22.024 10.9654 22.0202C10.9667 22.0189 10.968 22.0177 10.9693 22.0164C10.9877 22.0381 11.0179 22.0484 11.0467 22.0407L11.0769 22.0484C11.094 22.0689 11.1202 22.0778 11.1464 22.0714L11.1832 22.0791C11.2094 22.1035 11.2448 22.1137 11.2802 22.1073C11.2868 22.115 11.2986 22.115 11.3064 22.1073C11.3248 22.1278 11.3524 22.138 11.3799 22.1316L11.4114 22.138C11.4271 22.1585 11.4534 22.1675 11.4797 22.1623L11.5163 22.1701C11.5426 22.1943 11.578 22.2046 11.6134 22.1995C11.6187 22.2059 11.6292 22.2072 11.6357 22.2021C11.6371 22.2008 11.6384 22.2008 11.6384 22.1995C11.6554 22.2213 11.6856 22.2315 11.7131 22.2251C11.7197 22.2341 11.7315 22.2366 11.742 22.2315C11.7591 22.252 11.7866 22.2622 11.8128 22.2559L11.8443 22.2635C11.86 22.284 11.8863 22.293 11.9125 22.2879L11.9467 22.2955C11.9729 22.3199 12.0096 22.3314 12.045 22.325C12.0699 22.3506 12.108 22.3621 12.1434 22.3557L12.1513 22.3647H12.1618C12.1814 22.3877 12.213 22.3992 12.2431 22.3916C12.2431 22.4018 12.2549 22.4031 12.2641 22.398C12.2825 22.421 12.314 22.4313 12.3428 22.4236C12.3428 22.4338 12.3546 22.4351 12.3651 22.43C12.3835 22.453 12.4137 22.4633 12.4425 22.4569C12.4451 22.4646 12.453 22.4684 12.4609 22.4658C12.4622 22.4658 12.4635 22.4646 12.4648 22.4633C12.4832 22.4863 12.5133 22.4953 12.5422 22.4889C12.5448 22.4966 12.5527 22.5004 12.5606 22.4979C12.5619 22.4979 12.5632 22.4966 12.5645 22.4953C12.5829 22.5183 12.613 22.5286 12.6419 22.5222C12.6419 22.5312 12.6537 22.5337 12.6629 22.5222C12.6826 22.5453 12.7127 22.5555 12.7429 22.5491L12.7508 22.5581H12.7613C12.781 22.5811 12.8111 22.5913 12.84 22.5849C12.8636 22.6106 12.899 22.6233 12.9344 22.617C12.9489 22.6374 12.9738 22.6477 12.9987 22.6426L13.0315 22.6503C13.0473 22.6707 13.0735 22.681 13.0984 22.6759C13.1063 22.6848 13.1181 22.6874 13.1286 22.6836C13.1443 22.7053 13.1732 22.7156 13.1994 22.7092C13.2034 22.7181 13.2152 22.722 13.2244 22.7181C13.2244 22.7181 13.2257 22.7181 13.2257 22.7169C13.2427 22.7386 13.2716 22.7502 13.2991 22.7437C13.3004 22.7502 13.3083 22.754 13.3149 22.7527C13.3162 22.7527 13.3188 22.7514 13.3201 22.7502C13.3385 22.7732 13.3686 22.7835 13.3975 22.7783C13.412 22.7988 13.4355 22.8078 13.4605 22.8039L13.4933 22.8116C13.509 22.8321 13.5352 22.8423 13.5615 22.8385C13.5667 22.8475 13.5785 22.8501 13.5877 22.8462C13.6061 22.868 13.6349 22.8782 13.6625 22.8731L13.6704 22.8821H13.6809C13.6901 22.8987 13.7097 22.9077 13.7281 22.9038L13.7609 22.9128C13.7766 22.9333 13.8029 22.9435 13.8278 22.9384C13.833 22.9486 13.8448 22.9525 13.8553 22.9473C13.8724 22.9691 13.9012 22.9794 13.9288 22.9743L13.9353 22.9832H13.9472C13.9563 22.9999 13.976 23.0088 13.9944 23.005L14.0259 23.0127C14.0403 23.0344 14.0679 23.046 14.0941 23.0396C14.098 23.0485 14.1072 23.0524 14.1164 23.0485C14.1177 23.0485 14.1177 23.0472 14.119 23.0472C14.1361 23.0703 14.1649 23.0805 14.1925 23.0754C14.2056 23.0972 14.2318 23.1075 14.2568 23.1023C14.262 23.1126 14.2738 23.1164 14.2843 23.1113C14.3 23.133 14.3276 23.1433 14.3552 23.1382C14.3695 23.1587 14.3932 23.1676 14.4181 23.1638C14.4247 23.1728 14.4365 23.1766 14.447 23.1728C14.4627 23.1945 14.4902 23.2061 14.5165 23.2009H14.5611C14.5742 23.2214 14.5978 23.2329 14.6228 23.2278C14.6293 23.2368 14.6411 23.2406 14.6516 23.2368C14.6673 23.2586 14.6949 23.2701 14.7212 23.265C14.7342 23.2854 14.7592 23.2957 14.7841 23.2919C14.7894 23.3021 14.8012 23.3059 14.8117 23.3008C14.8274 23.3226 14.8549 23.3341 14.8825 23.329C14.8969 23.3495 14.9218 23.361 14.9468 23.3572C14.9494 23.3649 14.9586 23.3699 14.9664 23.3661C14.9678 23.3661 14.9691 23.3649 14.9704 23.3649C14.9874 23.3879 15.0163 23.3994 15.0451 23.3943C15.0583 23.4161 15.0845 23.4276 15.1107 23.4224L15.1186 23.4315H15.1304C15.1383 23.4494 15.158 23.4583 15.1777 23.4545C15.1829 23.4635 15.1947 23.4673 15.2052 23.4635C15.2209 23.4852 15.2485 23.4968 15.2761 23.4916C15.2878 23.5147 15.3154 23.5262 15.3403 23.5198C15.3416 23.5262 15.3482 23.5313 15.3561 23.5301C15.3587 23.5301 15.36 23.5288 15.3613 23.5275C15.3692 23.5441 15.3875 23.5531 15.4059 23.5493C15.4111 23.5595 15.4243 23.5633 15.4348 23.5595C15.4505 23.5813 15.478 23.5928 15.5056 23.5877C15.5187 23.6094 15.545 23.6222 15.5712 23.6171L15.579 23.6261H15.5909C15.5987 23.644 15.6171 23.6543 15.6368 23.6491C15.642 23.6594 15.6539 23.6632 15.6643 23.6581C15.6801 23.6811 15.7076 23.6927 15.7352 23.6876C15.747 23.7106 15.7732 23.7221 15.7994 23.717C15.8126 23.7388 15.8375 23.7503 15.8624 23.7464C15.865 23.7542 15.8742 23.758 15.8834 23.7554C15.8834 23.7554 15.8847 23.7554 15.8847 23.7542C15.8926 23.7708 15.911 23.7797 15.9293 23.7759C15.9345 23.7849 15.9463 23.79 15.9555 23.7849C15.9713 23.8079 16.0002 23.8208 16.0277 23.8156C16.0408 23.8374 16.0671 23.8502 16.0933 23.8451C16.1051 23.8668 16.1313 23.8784 16.1563 23.8745H16.1628C16.1759 23.895 16.1996 23.9053 16.2231 23.9027C16.2271 23.9117 16.2363 23.9155 16.2455 23.9129C16.2455 23.9129 16.2468 23.9129 16.2468 23.9117C16.2533 23.9283 16.2717 23.9373 16.2901 23.9334C16.2953 23.9424 16.3071 23.9475 16.3176 23.9437C16.3228 23.9603 16.3399 23.9693 16.357 23.9642L16.3872 23.9744C16.4015 23.9975 16.4278 24.009 16.4554 24.0052C16.4685 24.0269 16.4934 24.0397 16.5196 24.0346C16.5327 24.0564 16.5577 24.0679 16.5826 24.0641C16.5944 24.0858 16.6206 24.0974 16.6456 24.0935V24.1025H16.6574C16.6653 24.1204 16.6849 24.1294 16.7046 24.1268C16.7046 24.1358 16.7164 24.1396 16.7269 24.1345C16.7335 24.1511 16.7532 24.1614 16.7715 24.1575C16.7741 24.1652 16.782 24.1703 16.7912 24.1678C16.7925 24.1678 16.7938 24.1665 16.7951 24.1665C16.8017 24.1832 16.82 24.1921 16.8384 24.1895C16.8424 24.1985 16.8542 24.2036 16.8634 24.1998C16.8699 24.2152 16.8869 24.2241 16.904 24.2216C16.9092 24.2306 16.9211 24.2357 16.9316 24.2318C16.9368 24.2472 16.9539 24.2574 16.9709 24.2536C16.9774 24.2626 16.9893 24.2677 16.9998 24.2639C17.0142 24.2869 17.0418 24.2997 17.0693 24.2959C17.0824 24.3189 17.1087 24.3317 17.1349 24.3279C17.1467 24.3509 17.1742 24.365 17.2005 24.3599C17.2123 24.3842 17.2398 24.397 17.2661 24.3919C17.2779 24.4162 17.3054 24.429 17.3316 24.4239C17.3434 24.447 17.3697 24.4597 17.3959 24.4559C17.4091 24.479 17.4353 24.493 17.4615 24.4892C17.4733 24.5122 17.5009 24.5263 17.5271 24.5213C17.5389 24.5443 17.5652 24.5584 17.5914 24.5546C17.6045 24.5776 17.6307 24.5917 17.657 24.5879C17.6583 24.6032 17.6714 24.6134 17.6872 24.6121C17.6885 24.6121 17.6911 24.6121 17.6924 24.6109C17.6976 24.6212 17.7094 24.625 17.7199 24.6211C17.7252 24.6378 17.7423 24.648 17.7593 24.6442C17.7646 24.6532 17.7751 24.6583 17.7856 24.6544C17.7921 24.6711 17.8091 24.68 17.8262 24.6775C17.8301 24.6864 17.8393 24.6903 17.8485 24.6877C17.8485 24.6877 17.8498 24.6877 17.8498 24.6864C17.8564 24.7031 17.8735 24.7133 17.8918 24.7108C17.8944 24.7184 17.9036 24.7236 17.9115 24.721C17.9128 24.721 17.9128 24.721 17.9141 24.7197C17.922 24.7364 17.9403 24.7466 17.9587 24.7441C17.9587 24.7543 17.9653 24.7569 17.9784 24.7517C17.9862 24.7697 18.0046 24.7799 18.0243 24.7774H18.0309C18.0427 24.7991 18.0663 24.8107 18.0912 24.8081C18.1017 24.8299 18.1148 24.8286 18.1292 24.8081C18.1371 24.8132 18.1476 24.8119 18.1529 24.8042C18.1542 24.803 18.1542 24.8004 18.1555 24.7991C18.1738 24.8017 18.1909 24.7915 18.1961 24.7748C18.2066 24.7786 18.2171 24.7748 18.2224 24.7645C18.2368 24.7684 18.2525 24.7595 18.2551 24.7453C18.2551 24.7441 18.2551 24.7428 18.2565 24.7415C18.2827 24.7441 18.3076 24.7312 18.3195 24.7082C18.3443 24.7108 18.3693 24.6979 18.3811 24.6762C18.4047 24.6787 18.4284 24.6659 18.4401 24.6454H18.4467C18.465 24.648 18.4834 24.6378 18.4913 24.6211C18.4979 24.625 18.5071 24.6224 18.511 24.616C18.511 24.6147 18.5123 24.6134 18.5123 24.6121C18.5306 24.6147 18.5477 24.6045 18.5543 24.5879C18.5634 24.5917 18.5739 24.5879 18.5792 24.5788V24.5776C18.5936 24.5814 18.6094 24.5738 18.6133 24.5596C18.6133 24.5584 18.6146 24.5558 18.6146 24.5546C18.6421 24.5584 18.6684 24.5455 18.6802 24.5213C18.7065 24.5238 18.7327 24.511 18.7445 24.488C18.7707 24.4918 18.7957 24.479 18.8074 24.4559C18.8324 24.4585 18.856 24.447 18.8678 24.4252H18.8744C18.898 24.4277 18.9216 24.415 18.9334 24.3944H18.9399C18.9596 24.397 18.9793 24.3868 18.9872 24.3689H18.9976L19.0055 24.3599C19.0252 24.3624 19.0436 24.3522 19.0515 24.3343C19.058 24.3381 19.0672 24.3356 19.0711 24.3292C19.0711 24.3279 19.0725 24.3279 19.0725 24.3266C19.0908 24.3291 19.1091 24.3189 19.1157 24.3023C19.1236 24.3061 19.1341 24.3035 19.138 24.2946C19.138 24.2946 19.138 24.2933 19.1393 24.2933C19.1577 24.2959 19.1748 24.2869 19.1813 24.2702C19.1643 24.2984 19.1735 24.3343 19.2023 24.3509C19.2312 24.3676 19.2679 24.3586 19.2849 24.3304C19.302 24.3343 19.3204 24.324 19.3256 24.3073C19.3348 24.3112 19.3453 24.3074 19.3506 24.2984V24.2971C19.3676 24.301 19.3846 24.292 19.3912 24.2753C19.4017 24.2779 19.4122 24.2741 19.4174 24.2651C19.4345 24.2677 19.4516 24.2587 19.4581 24.2421C19.4686 24.2459 19.4791 24.2421 19.4843 24.2318C19.5014 24.2357 19.5185 24.2267 19.5237 24.2101C19.5342 24.2126 19.546 24.2088 19.5512 24.1985C19.567 24.2036 19.584 24.1947 19.5893 24.1793C19.5893 24.1781 19.5893 24.1781 19.5893 24.1768C19.5998 24.1819 19.6129 24.1768 19.6182 24.1665C19.6352 24.1703 19.6522 24.1614 19.6562 24.1448C19.6667 24.1486 19.6785 24.1435 19.6851 24.1345C19.7021 24.137 19.7179 24.1281 19.7244 24.1127C19.7349 24.1166 19.7454 24.1115 19.7506 24.1025C19.7677 24.105 19.7848 24.0961 19.7913 24.0794C19.8018 24.0833 19.8123 24.0794 19.8176 24.0692C19.8346 24.073 19.853 24.0641 19.8582 24.0474C19.8687 24.0512 19.8792 24.0474 19.8845 24.0372C19.9015 24.041 19.9198 24.032 19.9264 24.0154C19.9343 24.0192 19.9448 24.0154 19.9487 24.0077C19.9487 24.0064 19.95 24.0064 19.95 24.0052C19.9684 24.009 19.9868 24 19.9933 23.9834C20.0025 23.9872 20.013 23.9834 20.0169 23.9744C20.0366 23.9783 20.055 23.968 20.0629 23.9501C20.0681 23.9539 20.0773 23.9539 20.0812 23.9475C20.0826 23.9462 20.0839 23.9437 20.0839 23.9424C20.1036 23.945 20.1232 23.936 20.1311 23.9181H20.1429L20.1494 23.9091C20.1744 23.9117 20.1993 23.9001 20.2124 23.8796C20.2373 23.8835 20.2636 23.872 20.2754 23.8502C20.3016 23.8541 20.3265 23.8412 20.3397 23.8195C20.3659 23.8246 20.3921 23.8118 20.4052 23.7887C20.4328 23.7926 20.4604 23.781 20.4747 23.758L20.5036 23.7477C20.5207 23.7516 20.5377 23.7426 20.5443 23.726C20.5535 23.7311 20.5653 23.726 20.5705 23.717C20.5889 23.7209 20.6073 23.7106 20.6138 23.6939C20.6217 23.6991 20.6309 23.6965 20.6361 23.6901C20.6374 23.6888 20.6374 23.6876 20.6374 23.6863C20.6624 23.6888 20.686 23.6773 20.6978 23.6568C20.7227 23.6606 20.7477 23.6504 20.7607 23.6286C20.787 23.6338 20.8132 23.6222 20.8264 23.5992C20.8539 23.603 20.8814 23.5915 20.8972 23.5685C20.9077 23.5723 20.9195 23.5685 20.9247 23.5582C20.9431 23.5621 20.9614 23.5531 20.968 23.5364C20.9759 23.5415 20.9851 23.539 20.9903 23.5326C20.9916 23.5313 20.9916 23.5301 20.9916 23.5288C21.0166 23.5326 21.0401 23.5211 21.0533 23.5006H21.0598C21.0848 23.5057 21.111 23.4929 21.1228 23.4711C21.1503 23.4762 21.1779 23.4648 21.1923 23.4417C21.2028 23.4455 21.2147 23.4417 21.2212 23.4327C21.2395 23.4365 21.2579 23.4276 21.2645 23.411C21.2724 23.4148 21.2815 23.4122 21.2855 23.4045C21.2855 23.4045 21.2855 23.4032 21.2868 23.4032C21.3117 23.4071 21.3366 23.3956 21.3511 23.3751C21.3773 23.3802 21.4048 23.3687 21.4193 23.3469L21.4508 23.3366C21.4678 23.3405 21.4849 23.3316 21.4915 23.3162C21.5006 23.32 21.5111 23.3174 21.5163 23.3085C21.5163 23.3085 21.5163 23.3085 21.5163 23.3072C21.5413 23.3111 21.5662 23.3008 21.5793 23.2791C21.6055 23.2829 21.6318 23.2726 21.6475 23.2508L21.679 23.2406C21.6961 23.2445 21.7144 23.2355 21.721 23.2201C21.7289 23.224 21.7394 23.2214 21.7433 23.2125C21.7433 23.2125 21.7433 23.2112 21.7446 23.2112C21.7695 23.2163 21.7958 23.2061 21.8089 23.1842C21.8364 23.1894 21.864 23.1779 21.8797 23.1561C21.8902 23.1612 21.902 23.1574 21.9073 23.1471C21.9309 23.151 21.9558 23.1408 21.9689 23.1202H21.9755C22.0017 23.1254 22.028 23.1151 22.0424 23.0934L22.0739 23.0831C22.083 23.1087 22.1132 23.1228 22.1395 23.1138C22.1657 23.1049 22.1801 23.0754 22.1709 23.0498C22.1775 23.055 22.1867 23.0524 22.1906 23.046C22.1919 23.0447 22.1919 23.0434 22.1933 23.0421C22.2195 23.046 22.2444 23.0357 22.2588 23.0139C22.2877 23.0191 22.3166 23.0076 22.3336 22.9845C22.3415 22.9896 22.3507 22.9871 22.3559 22.9806C22.3572 22.9794 22.3572 22.9781 22.3572 22.9768C22.3835 22.9806 22.4084 22.9704 22.4228 22.9486C22.4517 22.9525 22.4805 22.9422 22.4976 22.9192C22.5042 22.9243 22.5133 22.9218 22.5172 22.9153C22.5186 22.9141 22.5186 22.9128 22.5199 22.9115C22.5461 22.9179 22.5737 22.9064 22.5881 22.8846L22.6209 22.8756C22.6393 22.8795 22.6589 22.8705 22.6668 22.8539C22.676 22.8603 22.6826 22.8539 22.6865 22.8475C22.714 22.8526 22.7416 22.8423 22.7573 22.8206L22.7875 22.8116C22.8111 22.8168 22.836 22.8065 22.8492 22.786H22.8557C22.8832 22.7911 22.9108 22.7809 22.9279 22.7591C22.9371 22.763 22.9489 22.7604 22.9541 22.7514C22.9803 22.7565 23.0066 22.745 23.021 22.7245L23.0538 22.7156C23.0721 22.7194 23.0918 22.7104 23.101 22.6938H23.1115L23.1194 22.6848C23.147 22.6899 23.1758 22.6797 23.1928 22.6579C23.2033 22.6631 23.2152 22.6592 23.2204 22.649C23.2454 22.6541 23.2729 22.6439 23.2873 22.6233L23.3214 22.6144C23.3451 22.6182 23.3686 22.608 23.3818 22.5888C23.4093 22.5952 23.4382 22.5837 23.4552 22.5619C23.4631 22.567 23.4736 22.5645 23.4788 22.5568C23.4788 22.5555 23.4801 22.5555 23.4801 22.5542C23.5064 22.5593 23.5339 22.5504 23.551 22.5286C23.5615 22.5324 23.5733 22.5286 23.5798 22.5196C23.6048 22.5248 23.6323 22.5145 23.6467 22.4941L23.6809 22.4863C23.7058 22.4902 23.7294 22.4812 23.7438 22.4608C23.774 22.4671 23.8042 22.4556 23.8225 22.4325H23.8343L23.8422 22.4236C23.8711 22.4287 23.9 22.4184 23.9183 22.3967C23.9248 22.4018 23.9353 22.4005 23.9406 22.3929C23.9406 22.3916 23.9419 22.3916 23.9419 22.3903C23.9695 22.3954 23.9983 22.3851 24.0153 22.3634C24.0245 22.3685 24.0364 22.3659 24.0429 22.357C24.0692 22.3621 24.0967 22.3519 24.1137 22.3314C24.1242 22.3352 24.1361 22.3326 24.1426 22.3237C24.1689 22.3288 24.1964 22.3199 24.2121 22.2981C24.2226 22.3019 24.2344 22.2993 24.2423 22.2904C24.2686 22.2968 24.2961 22.2866 24.3118 22.2661L24.342 22.2571C24.3682 22.2635 24.3958 22.2533 24.4115 22.2328L24.443 22.2251C24.4692 22.2315 24.4955 22.2213 24.5112 22.2008L24.5427 22.1931C24.5689 22.1982 24.5965 22.188 24.6123 22.1675C24.6228 22.1726 24.6359 22.1701 24.6424 22.1611C24.6686 22.1675 24.6975 22.1572 24.7133 22.1355C24.7238 22.1406 24.7356 22.138 24.7421 22.129C24.7697 22.1355 24.7985 22.1252 24.8156 22.1035C24.8248 22.1086 24.8365 22.106 24.8418 22.097C24.8707 22.1035 24.8995 22.0945 24.9179 22.0714C24.9231 22.0765 24.9323 22.0765 24.9389 22.0702C24.9402 22.0689 24.9415 22.0663 24.9415 22.065C24.9704 22.0727 25.0019 22.0624 25.0215 22.0394H25.0333L25.0569 22.0253C25.0937 22.0317 25.1304 22.0202 25.1566 21.9959L25.1908 21.9882C25.217 21.9933 25.2432 21.9844 25.2603 21.9639L25.2904 21.9562C25.318 21.9626 25.3469 21.9536 25.3639 21.9319C25.3718 21.937 25.3823 21.937 25.3875 21.9293C25.3888 21.928 25.3888 21.9267 25.3901 21.9254C25.4203 21.9331 25.4518 21.9229 25.4715 21.8998H25.482L25.4898 21.8921C25.5266 21.8986 25.5646 21.887 25.5922 21.8627L25.6237 21.855C25.6512 21.8614 25.68 21.8524 25.6984 21.8307C25.7037 21.8371 25.7142 21.8383 25.7207 21.8332C25.722 21.832 25.7234 21.832 25.7234 21.8307C25.7601 21.8371 25.7968 21.8255 25.8231 21.8012H25.8571C25.8834 21.8076 25.9123 21.7987 25.9293 21.7769C25.9372 21.7846 25.949 21.7846 25.9568 21.7769C25.9923 21.7833 26.029 21.773 26.0552 21.7487L26.0907 21.741C26.1182 21.7474 26.1457 21.7384 26.1641 21.718C26.172 21.7231 26.1838 21.7205 26.1891 21.7129C26.1891 21.7129 26.1891 21.7116 26.1904 21.7116C26.2271 21.718 26.2638 21.7077 26.2914 21.6834H26.3241C26.353 21.6911 26.3832 21.6808 26.4029 21.6591L26.4567 21.6501C26.4842 21.6565 26.5117 21.6475 26.5301 21.6271C26.5367 21.6347 26.5485 21.6347 26.5564 21.6271C26.5931 21.6347 26.6311 21.6245 26.66 21.6001C26.6692 21.6066 26.681 21.6066 26.6901 21.6001C26.7256 21.6066 26.7623 21.5976 26.7898 21.5733L26.8227 21.5668C26.8581 21.5733 26.8948 21.563 26.921 21.54L26.9565 21.5335C26.9919 21.54 27.0286 21.531 27.0548 21.5067L27.0903 21.5002C27.1191 21.508 27.1506 21.499 27.1703 21.4772L27.2228 21.4682C27.2582 21.4747 27.2936 21.4657 27.3212 21.4426L27.3566 21.4362C27.392 21.4439 27.4287 21.4337 27.4563 21.4106L27.4891 21.4042C27.5258 21.4119 27.5638 21.403 27.5914 21.3786C27.6006 21.385 27.6137 21.385 27.6228 21.3786C27.6609 21.385 27.699 21.376 27.7291 21.3517L27.7895 21.3427C27.8183 21.3492 27.8485 21.3415 27.8695 21.3197L27.9233 21.312C27.96 21.3197 27.9967 21.3094 28.0256 21.2864C28.0348 21.2941 28.0466 21.2941 28.0558 21.2864C28.0951 21.2941 28.1358 21.2851 28.1672 21.2595L28.2224 21.2519C28.2591 21.2582 28.2971 21.2506 28.3273 21.2275L28.389 21.2173C28.4244 21.2249 28.4624 21.216 28.49 21.1929H28.5215C28.5674 21.2006 28.6146 21.1903 28.6526 21.1648H28.6868C28.7261 21.1737 28.7681 21.1648 28.7996 21.1404L28.8533 21.1328C28.894 21.1417 28.936 21.1328 28.9675 21.1071C28.9832 21.1161 29.0042 21.1161 29.0199 21.1071C29.0659 21.1135 29.1118 21.1045 29.1511 21.0802H29.1839C29.2312 21.0879 29.281 21.079 29.3217 21.0533L29.3846 21.0457C29.424 21.0546 29.4646 21.0457 29.4961 21.0213L29.5513 21.0149C29.5998 21.0239 29.6483 21.0137 29.6903 20.9893L29.7506 20.9804C29.7966 20.988 29.8424 20.9791 29.8818 20.956L29.9461 20.9483C29.992 20.9547 30.0379 20.9458 30.0773 20.9227L30.1415 20.9163C30.1888 20.9253 30.2386 20.915 30.2793 20.8907L30.341 20.8843C30.3908 20.8933 30.4433 20.8843 30.4865 20.8587C30.5154 20.8651 30.5469 20.8625 30.5744 20.8497C30.623 20.8587 30.6728 20.851 30.7148 20.8267L30.7738 20.8202C30.8329 20.8292 30.8945 20.819 30.9483 20.7934C30.9798 20.7998 31.0113 20.7972 31.0414 20.7857C31.0913 20.7947 31.1425 20.7857 31.1858 20.7614C31.2146 20.769 31.2461 20.7665 31.2737 20.7537C31.3327 20.7626 31.3944 20.755 31.4481 20.7293C31.4783 20.7357 31.5111 20.7332 31.54 20.7204C31.6003 20.7306 31.662 20.723 31.717 20.696C31.7472 20.7037 31.7787 20.7024 31.8062 20.6897C31.8771 20.6986 31.9493 20.6897 32.0148 20.664C32.045 20.6717 32.0778 20.6692 32.1067 20.6564C32.1788 20.6666 32.2523 20.6589 32.3192 20.6307C32.3598 20.641 32.4018 20.6371 32.4398 20.6231C32.5199 20.632 32.6026 20.6243 32.6786 20.5987C32.7219 20.6064 32.7678 20.6039 32.8098 20.591C32.8924 20.6 32.9764 20.5923 33.0551 20.5667C33.1063 20.5757 33.1601 20.5718 33.2099 20.559C33.3122 20.5667 33.4159 20.559 33.5156 20.5334C33.5693 20.5424 33.6245 20.5385 33.6769 20.5257L33.7346 20.5424C33.749 20.591 33.753 20.6423 33.7477 20.6922V24.3957C33.7477 24.4495 33.7399 24.5033 33.7359 24.5571C33.6323 24.552 33.5274 24.5648 33.4277 24.5917L33.4159 24.5853L33.4067 24.5929C33.3017 24.5827 33.1941 24.5942 33.0931 24.6237L33.0826 24.6173L33.0734 24.625C32.9725 24.6173 32.8702 24.6275 32.7731 24.6583C32.6839 24.648 32.5947 24.6596 32.5107 24.6903C32.4215 24.6813 32.3323 24.6941 32.2483 24.7249C32.167 24.7172 32.0843 24.7274 32.0083 24.7556H31.9951L31.9846 24.7645C31.9138 24.7543 31.8404 24.7645 31.7747 24.794H31.7617L31.7512 24.8017C31.6829 24.7928 31.6121 24.803 31.5505 24.8337C31.4796 24.8261 31.4074 24.8362 31.3419 24.8644H31.33L31.3195 24.8721C31.2579 24.8632 31.1963 24.8734 31.1411 24.9016H31.1293L31.1202 24.9093C31.0598 24.9016 30.9982 24.9119 30.9431 24.9387H30.93L30.9195 24.9464C30.8617 24.9374 30.8027 24.949 30.7529 24.9772C30.6925 24.9694 30.6296 24.9797 30.5757 25.0079H30.5653L30.5561 25.0168C30.4984 25.0079 30.4393 25.0181 30.3895 25.0476C30.3331 25.0386 30.2741 25.0501 30.2255 25.0796C30.1691 25.0706 30.11 25.0834 30.0615 25.1129C30.0051 25.1052 29.9461 25.1155 29.8976 25.1449C29.8411 25.1372 29.7834 25.1488 29.7349 25.1782C29.689 25.1692 29.6405 25.1795 29.6037 25.2076C29.5473 25.2013 29.4896 25.2128 29.4411 25.2422C29.3951 25.2333 29.3466 25.2448 29.3099 25.273C29.2535 25.2666 29.1983 25.2793 29.1498 25.3075C29.1039 25.2999 29.0567 25.3101 29.0186 25.3383C28.9727 25.3306 28.9242 25.3421 28.8875 25.3703C28.8415 25.3613 28.793 25.3729 28.7563 25.4023C28.7091 25.3946 28.6618 25.4062 28.6251 25.4356C28.5779 25.4279 28.5307 25.4395 28.4939 25.4689C28.4467 25.4612 28.3995 25.474 28.3627 25.5022C28.3155 25.4945 28.2683 25.5073 28.2316 25.5355C28.1922 25.5278 28.1502 25.5381 28.12 25.5637H28.1082L28.1004 25.5726C28.0637 25.5637 28.0256 25.5739 27.9993 25.6008C27.9521 25.5931 27.9049 25.6059 27.8682 25.6353C27.8288 25.6277 27.7882 25.6392 27.758 25.6648H27.7462L27.737 25.6725C27.7002 25.6648 27.6635 25.6764 27.6373 25.7019C27.598 25.6943 27.5573 25.7058 27.5271 25.7314H27.5153L27.5061 25.7404C27.4694 25.7327 27.4326 25.7442 27.4064 25.7698C27.3697 25.7609 27.3316 25.7724 27.3067 25.7993C27.2595 25.7916 27.2123 25.8044 27.1755 25.8351H27.169C27.1336 25.8275 27.0968 25.839 27.0719 25.8646C27.0352 25.8556 26.9971 25.8672 26.9735 25.8953C26.9342 25.8889 26.8948 25.9005 26.8659 25.9261H26.8528L26.8437 25.935C26.8082 25.9286 26.7728 25.9389 26.7479 25.9645H26.7413C26.7072 25.9581 26.6705 25.9683 26.6469 25.9939C26.6114 25.9875 26.5761 25.9991 26.5511 26.0247C26.5157 26.0183 26.479 26.0298 26.454 26.0554C26.4186 26.049 26.3819 26.0605 26.357 26.0874C26.3202 26.081 26.2835 26.0925 26.2586 26.1195C26.2231 26.113 26.1864 26.1246 26.1615 26.1515C26.1261 26.145 26.0894 26.1579 26.0644 26.1835C26.029 26.1771 25.9923 26.1886 25.9687 26.2155C25.9333 26.2091 25.8978 26.2219 25.8742 26.2475C25.8454 26.2411 25.8139 26.2513 25.7955 26.2744H25.7837L25.7758 26.2833C25.7483 26.2833 25.722 26.2833 25.7076 26.309C25.6709 26.3026 25.6342 26.3166 25.6105 26.3436C25.5751 26.3372 25.5384 26.3499 25.5148 26.3769C25.4806 26.3717 25.4453 26.3832 25.4216 26.4089C25.3954 26.4089 25.3692 26.4089 25.3547 26.4345C25.318 26.4281 25.2813 26.4409 25.2577 26.469C25.2222 26.4639 25.1868 26.4768 25.1632 26.5023C25.137 26.5023 25.1107 26.5023 25.0963 26.528C25.0609 26.5228 25.0241 26.5356 25.0019 26.5626C24.9664 26.5574 24.9323 26.5702 24.9087 26.5959C24.8825 26.5894 24.8562 26.5997 24.8431 26.6227C24.8077 26.6176 24.7723 26.6304 24.75 26.6573C24.7238 26.6573 24.6975 26.6573 24.6831 26.6842C24.6476 26.6804 24.6123 26.6932 24.5886 26.7201C24.5624 26.7201 24.5362 26.7201 24.5217 26.7482C24.4863 26.7444 24.4509 26.7572 24.4286 26.7841C24.4023 26.7841 24.3761 26.7841 24.363 26.8122C24.3276 26.8084 24.2935 26.8212 24.2712 26.8481H24.2646C24.2384 26.843 24.2121 26.8533 24.199 26.8763C24.1715 26.8763 24.1466 26.8763 24.1308 26.9032C24.0954 26.8993 24.06 26.9134 24.0377 26.9403C24.0114 26.9403 23.9852 26.9403 23.9721 26.9698C23.938 26.9659 23.9038 26.9787 23.8816 27.0057H23.8737C23.8488 27.0005 23.8225 27.012 23.8107 27.0338C23.7845 27.0338 23.7582 27.0338 23.7451 27.0632C23.715 27.0594 23.6861 27.0722 23.6677 27.0953H23.6559L23.648 27.1055C23.6232 27.1004 23.5969 27.1119 23.5838 27.1337C23.5575 27.1286 23.5313 27.1401 23.5182 27.1631C23.4906 27.1631 23.4644 27.1631 23.4513 27.1913C23.4172 27.1875 23.3831 27.2015 23.3621 27.2285H23.3542C23.3293 27.2246 23.3057 27.2361 23.2925 27.2566C23.2663 27.2528 23.2414 27.2643 23.2283 27.2861C23.202 27.2861 23.1758 27.2861 23.1627 27.3155C23.1365 27.3092 23.1089 27.3219 23.0958 27.345C23.0682 27.345 23.0433 27.345 23.0302 27.3744C22.9961 27.3719 22.962 27.3872 22.941 27.4142H22.9344C22.9095 27.409 22.8846 27.4205 22.8728 27.4423C22.8479 27.4372 22.8216 27.45 22.8098 27.4718C22.7836 27.4679 22.7587 27.4795 22.7455 27.5025C22.7258 27.5051 22.7075 27.5102 22.6891 27.5179C22.6786 27.5255 22.6734 27.5396 22.6747 27.5525C22.6747 27.5627 22.697 27.5678 22.7088 27.5742C22.7114 27.5909 22.7285 27.6037 22.7455 27.6011C22.7455 27.6139 22.756 27.6254 22.7692 27.6267C22.7718 27.6267 22.7744 27.6267 22.777 27.6254C22.777 27.637 22.7849 27.6395 22.7953 27.637C22.8032 27.6562 22.8203 27.6677 22.8413 27.669C22.8439 27.6857 22.8597 27.6984 22.8767 27.6971C22.8767 27.7125 22.8885 27.7215 22.9056 27.7202C22.9082 27.7292 22.9187 27.7356 22.9279 27.733C22.9344 27.751 22.9528 27.7637 22.9725 27.7624C22.9725 27.7778 22.9856 27.7894 23.0013 27.7881C23.0026 27.7881 23.0039 27.7881 23.0053 27.7881H23.0118C23.021 27.8111 23.0433 27.8265 23.0682 27.8278C23.0708 27.8457 23.0866 27.8573 23.105 27.856C23.105 27.8713 23.1181 27.8828 23.1338 27.8815C23.1351 27.8815 23.1365 27.8815 23.1378 27.8815H23.1443C23.1535 27.9046 23.1758 27.92 23.2007 27.92C23.2033 27.9379 23.2191 27.9494 23.2375 27.9481C23.2375 27.9635 23.2506 27.9751 23.2663 27.9738C23.2676 27.9738 23.2689 27.9738 23.2702 27.9738C23.2794 27.9968 23.3017 28.0122 23.3267 28.0122C23.3293 28.0301 23.3451 28.0417 23.3634 28.0404C23.3647 28.0557 23.3791 28.0672 23.3949 28.066H23.3962C23.4067 28.0877 23.4277 28.1031 23.4526 28.1044C23.4552 28.1223 23.4723 28.1351 23.4906 28.1338C23.4906 28.1492 23.5038 28.1621 23.5208 28.1608C23.5221 28.1608 23.5235 28.1608 23.5248 28.1608C23.5339 28.1838 23.5549 28.1992 23.5798 28.2004C23.5838 28.2171 23.5995 28.2299 23.6179 28.2286C23.6205 28.2453 23.6349 28.2581 23.652 28.2568C23.652 28.2709 23.6651 28.2824 23.6795 28.2812C23.6809 28.2812 23.6822 28.2812 23.6822 28.2812L23.6914 28.2875C23.7005 28.3093 23.7215 28.3234 23.7451 28.3246C23.7477 28.3413 23.7635 28.3541 23.7806 28.3528C23.7806 28.3682 23.7924 28.3797 23.8081 28.3797C23.8094 28.3797 23.8107 28.3797 23.812 28.3797H23.8186C23.8278 28.4028 23.8488 28.4182 23.8737 28.4194C23.8763 28.4374 23.8921 28.4502 23.9104 28.4489C23.913 28.4668 23.9275 28.4796 23.9458 28.4783C23.9458 28.4924 23.959 28.504 23.9734 28.5027C23.9747 28.5027 23.976 28.5027 23.9773 28.5027H23.9852C23.9931 28.5257 24.014 28.5411 24.039 28.5424C24.0416 28.5603 24.0574 28.5731 24.0757 28.5718C24.0757 28.5885 24.0901 28.6013 24.1072 28.6C24.1085 28.6 24.1085 28.6 24.1098 28.6C24.1098 28.6141 24.1229 28.6256 24.1374 28.6243C24.1387 28.6243 24.14 28.6243 24.14 28.6243L24.1479 28.6307C24.1557 28.6525 24.1767 28.6679 24.2016 28.6691C24.2043 28.6871 24.22 28.6999 24.2384 28.6986C24.2397 28.7152 24.2554 28.7281 24.2725 28.7268C24.2725 28.7447 24.2843 28.7537 24.3026 28.7524H24.3105C24.3184 28.7755 24.3394 28.7908 24.3643 28.7921C24.3669 28.81 24.3827 28.8228 24.401 28.8215C24.4037 28.8382 24.4181 28.851 24.4352 28.851C24.4352 28.8664 24.447 28.8779 24.4627 28.8779C24.464 28.8779 24.464 28.8779 24.4653 28.8779H24.4719C24.4797 28.9009 24.5007 28.9163 24.5257 28.9189C24.5283 28.9368 24.5441 28.9496 24.5624 28.9483C24.5637 28.9663 24.5794 28.9804 24.5978 28.9791C24.5978 28.9944 24.6109 29.0072 24.6267 29.0072C24.628 29.0072 24.6293 29.0072 24.6306 29.0072C24.6306 29.0226 24.6437 29.0341 24.6594 29.0329H24.6608H24.6686C24.6765 29.0546 24.6975 29.0712 24.7211 29.0725C24.7238 29.0904 24.7395 29.1033 24.7578 29.102C24.7605 29.1199 24.7762 29.1328 24.7946 29.1315C24.7959 29.1481 24.809 29.1609 24.8261 29.1596H24.8274C24.8274 29.1737 24.8392 29.1853 24.8536 29.1853C24.8549 29.1853 24.8549 29.1853 24.8562 29.1853H24.8641C24.872 29.207 24.893 29.2236 24.9166 29.2262L24.9244 29.2198H24.9166C24.9192 29.2377 24.9349 29.2519 24.9533 29.2506C24.9559 29.2685 24.9717 29.2826 24.9901 29.2813C24.9914 29.2979 25.0071 29.312 25.0241 29.3107C25.0241 29.3261 25.0359 29.3377 25.0517 29.3377C25.053 29.3377 25.053 29.3377 25.0543 29.3377H25.0609C25.0609 29.3504 25.0714 29.3619 25.0858 29.3619C25.0871 29.3619 25.0871 29.3619 25.0884 29.3619L25.0976 29.3684C25.1055 29.3914 25.1265 29.4068 25.1501 29.4081H25.1435C25.1461 29.426 25.1619 29.4388 25.1803 29.4388C25.1829 29.4568 25.1986 29.4708 25.217 29.4695C25.2183 29.4862 25.2327 29.5002 25.2498 29.499C25.2511 29.5156 25.2642 29.5284 25.2813 29.5272C25.2826 29.5425 25.2944 29.5541 25.3101 29.5528H25.318C25.3246 29.5758 25.3456 29.5925 25.3692 29.595L25.3784 29.5886H25.3692C25.3718 29.6066 25.3875 29.6193 25.4059 29.6193C25.4072 29.6373 25.4229 29.6514 25.4413 29.6514C25.4439 29.6693 25.4584 29.6821 25.4767 29.6821C25.4794 29.6988 25.4938 29.7116 25.5108 29.7116C25.5108 29.727 25.5226 29.7384 25.5384 29.7384C25.5397 29.7384 25.5397 29.7384 25.541 29.7384C25.5423 29.7538 25.5541 29.7654 25.5698 29.7641L25.5777 29.7705C25.5856 29.7935 25.6053 29.8089 25.6289 29.8128H25.6381H25.6276C25.6302 29.8307 25.646 29.8435 25.6643 29.8448V29.8383H25.6578C25.6604 29.8563 25.6761 29.8691 25.6945 29.8691C25.6971 29.887 25.7115 29.8998 25.7299 29.8998C25.7312 29.9178 25.7457 29.9319 25.764 29.9306C25.7653 29.9472 25.7797 29.96 25.7968 29.96C25.7981 29.9766 25.8113 29.9895 25.8283 29.9882C25.8283 30.0036 25.8414 30.0151 25.8571 30.0138H25.8584V30.0202C25.8571 30.033 25.8676 30.0432 25.8808 30.0445C25.8821 30.0445 25.8834 30.0445 25.8847 30.0445L25.8926 30.051C25.9031 30.074 25.9175 30.0919 25.9463 30.0894C25.9621 30.1188 25.9765 30.1086 25.9883 30.0894L26.0185 30.0791C26.0355 30.083 26.0539 30.074 26.0605 30.0573C26.0697 30.0612 26.0802 30.0586 26.0854 30.0497C26.0854 30.0497 26.0854 30.0497 26.0854 30.0484C26.109 30.0522 26.1339 30.0419 26.1457 30.0215C26.172 30.0266 26.1969 30.0138 26.2101 29.992C26.2376 29.9972 26.2651 29.9856 26.2796 29.9626C26.2901 29.9664 26.3032 29.9639 26.3097 29.9536C26.3281 29.9574 26.3465 29.9485 26.353 29.9319C26.3609 29.9357 26.3701 29.9331 26.374 29.9254C26.374 29.9254 26.374 29.9241 26.3753 29.9241C26.4003 29.928 26.4265 29.9178 26.4396 29.896C26.4672 29.8998 26.4934 29.8883 26.5091 29.8665C26.5196 29.8716 26.5327 29.8678 26.538 29.8575C26.5564 29.8614 26.5747 29.8524 26.5826 29.8358C26.5891 29.8409 26.5983 29.8383 26.6022 29.832C26.6036 29.8307 26.6036 29.8294 26.6049 29.8281C26.6298 29.8332 26.6561 29.8217 26.6692 29.7999C26.6967 29.805 26.7243 29.7935 26.7413 29.7717C26.7505 29.7769 26.7623 29.7717 26.7676 29.7628C26.7925 29.7666 26.8174 29.7564 26.8305 29.7359C26.8581 29.741 26.8856 29.7308 26.9 29.7077C26.9105 29.7116 26.9224 29.709 26.9289 29.7C26.9526 29.7039 26.9774 29.6937 26.9906 29.6732H26.9971C27.0234 29.6783 27.0509 29.668 27.0666 29.6463C27.0771 29.6501 27.0889 29.6463 27.0955 29.6373C27.1205 29.6412 27.1453 29.6309 27.1585 29.6104C27.186 29.6155 27.2136 29.6053 27.2293 29.5822C27.2385 29.5873 27.2503 29.5848 27.2569 29.5758V29.5746C27.2818 29.5797 27.308 29.5694 27.3212 29.5476C27.35 29.5528 27.3802 29.5425 27.3972 29.5195C27.4025 29.5246 27.4117 29.5233 27.4156 29.5182C27.4169 29.5169 27.4182 29.5156 27.4182 29.5131C27.4458 29.5182 27.472 29.508 27.4891 29.4862C27.4996 29.49 27.5127 29.4875 27.5192 29.4772C27.5441 29.4823 27.5691 29.4721 27.5835 29.4516C27.6123 29.4567 27.6425 29.4465 27.6609 29.4234C27.6662 29.4285 27.6754 29.4273 27.6793 29.4222C27.6806 29.4209 27.6819 29.4196 27.6819 29.417C27.7094 29.4222 27.737 29.4119 27.754 29.3901C27.7646 29.394 27.7751 29.3914 27.7816 29.3824C27.8078 29.3889 27.8341 29.3786 27.8498 29.3568L27.8813 29.3479C27.9062 29.353 27.9325 29.344 27.9469 29.3235L27.9823 29.3146C28.0059 29.3184 28.0295 29.3094 28.044 29.2902C28.0728 29.2966 28.1043 29.2864 28.1227 29.2633H28.1345L28.1424 29.2557C28.1712 29.2621 28.2014 29.2506 28.2197 29.2275C28.2237 29.2339 28.2316 29.2352 28.2381 29.2313C28.2394 29.2301 28.2408 29.2288 28.2421 29.2275C28.2709 29.2339 28.2998 29.2236 28.3181 29.2006C28.3247 29.2057 28.3352 29.2045 28.3405 29.1968C28.3405 29.1955 28.3418 29.1955 28.3418 29.1942C28.3706 29.2006 28.3995 29.1903 28.4178 29.1686C28.4257 29.1737 28.4362 29.1724 28.4414 29.1648C28.4414 29.1635 28.4427 29.1635 28.4427 29.1622C28.4716 29.1686 28.5018 29.1583 28.5202 29.1353C28.5254 29.1417 28.5345 29.1417 28.5398 29.1378C28.5411 29.1378 28.5411 29.1366 28.5424 29.1353C28.5713 29.1417 28.6015 29.1315 28.6212 29.1084H28.6329L28.6421 29.1007C28.6776 29.1058 28.7143 29.0943 28.7392 29.07C28.7746 29.0764 28.8114 29.0649 28.8363 29.0392L28.8704 29.0316C28.8967 29.0379 28.9229 29.029 28.9399 29.0085L28.9701 29.0008C28.9976 29.0072 29.0265 28.9983 29.0436 28.9765C29.0514 28.9816 29.0633 28.9791 29.0685 28.9713C29.0685 28.9713 29.0685 28.9701 29.0698 28.9701C29.1052 28.9765 29.1406 28.9663 29.1669 28.9419L29.2036 28.9342C29.2285 28.9406 29.2561 28.9317 29.2718 28.9112L29.3033 28.9035C29.3322 28.9112 29.3624 28.9009 29.3807 28.8792C29.3859 28.8855 29.3951 28.8855 29.4004 28.8817C29.4017 28.8817 29.4017 28.8805 29.403 28.8792C29.4397 28.8868 29.4778 28.8753 29.5053 28.851L29.5368 28.8433C29.5643 28.851 29.5958 28.8421 29.6142 28.8202L29.6706 28.8088C29.6969 28.8151 29.7244 28.8062 29.7414 28.787C29.7519 28.7921 29.7637 28.7895 29.7703 28.7806C29.8057 28.787 29.8424 28.7767 29.87 28.7524H29.9028C29.9316 28.7601 29.9631 28.7511 29.9828 28.7281L30.0366 28.7191C30.0642 28.7255 30.0943 28.7165 30.114 28.696L30.1704 28.6858C30.198 28.6922 30.2268 28.6845 30.2452 28.664L30.3029 28.6538C30.3305 28.6602 30.3606 28.6512 30.379 28.6307L30.4367 28.6218C30.4656 28.6294 30.4957 28.6205 30.5154 28.5987L30.5692 28.5898C30.6046 28.5974 30.6414 28.5872 30.6689 28.5641L30.703 28.5577C30.7398 28.5667 30.7791 28.5577 30.808 28.5334C30.8158 28.5398 30.8277 28.5398 30.8355 28.5334C30.8762 28.5411 30.9182 28.5308 30.9496 28.5052L31.0021 28.4975C31.0388 28.5065 31.0782 28.4975 31.1084 28.4732L31.17 28.4642C31.2055 28.4719 31.2435 28.463 31.271 28.4399H31.3025C31.3484 28.4463 31.3957 28.4374 31.4337 28.4117H31.4665C31.5124 28.4194 31.5596 28.4092 31.5977 28.3849L31.662 28.3759C31.6987 28.3836 31.7367 28.3746 31.7669 28.3528L31.8286 28.3451C31.8679 28.3541 31.9099 28.3452 31.9414 28.3208C31.9597 28.3272 31.9794 28.3259 31.9951 28.3144C32.0437 28.3234 32.0935 28.3144 32.1355 28.2888L32.1945 28.2812C32.2431 28.2901 32.2929 28.2811 32.3349 28.2555L32.3953 28.2491C32.4451 28.2581 32.4963 28.2491 32.5395 28.2235C32.5697 28.2299 32.6012 28.2273 32.6287 28.2146C32.676 28.2235 32.7258 28.2146 32.7678 28.1902H32.8282C32.8872 28.2004 32.9475 28.1915 33.0013 28.1646C33.0328 28.171 33.0656 28.1684 33.0944 28.1556C33.1522 28.1646 33.2112 28.1556 33.2637 28.1313H33.328C33.3975 28.1402 33.4683 28.13 33.5326 28.1044C33.5641 28.1121 33.5969 28.1082 33.627 28.0967L33.7989 28.1031V32.0141C33.8042 32.0449 33.7937 32.0769 33.7727 32.1012H33.6717C33.5326 32.1012 33.3936 32.1012 33.2558 32.1089C33.2007 32.1025 33.1443 32.1102 33.0931 32.1319C32.9489 32.1217 32.8032 32.1319 32.6616 32.1652C32.5671 32.155 32.4727 32.1652 32.3835 32.196L32.373 32.1895L32.3638 32.1973C32.2838 32.1883 32.2037 32.1998 32.1303 32.2306C32.0437 32.2101 31.9532 32.2241 31.8784 32.2702C31.8115 32.2613 31.7433 32.2741 31.6829 32.3048C31.6265 32.2959 31.5675 32.3073 31.5189 32.3368C31.4626 32.3292 31.4061 32.3406 31.3576 32.3701C31.3117 32.3612 31.2632 32.3727 31.2264 32.4009C31.1805 32.3919 31.132 32.4034 31.0953 32.4329C31.048 32.4252 31.0008 32.438 30.9641 32.4662C30.9169 32.4585 30.8696 32.4713 30.8329 32.4995C30.7975 32.4905 30.7581 32.5008 30.7332 32.5276C30.6859 32.5213 30.6387 32.5341 30.602 32.5635C30.5666 32.5546 30.5285 32.5673 30.5049 32.5942C30.4682 32.5942 30.4315 32.5942 30.4065 32.6263C30.3698 32.6263 30.3331 32.6263 30.3081 32.6583C30.2714 32.6519 30.2347 32.6646 30.2097 32.6916C30.173 32.6852 30.1363 32.6967 30.1127 32.7249C30.0773 32.7197 30.0405 32.7325 30.0169 32.7582C29.9881 32.753 29.9579 32.7633 29.9395 32.7863H29.9277L29.9199 32.7953C29.8923 32.7953 29.8661 32.7953 29.8516 32.8235C29.8162 32.8183 29.7808 32.8311 29.7572 32.8581C29.731 32.8581 29.7047 32.8581 29.6916 32.8862C29.6562 32.8811 29.6221 32.8952 29.5998 32.9221C29.5748 32.9157 29.5473 32.9272 29.5355 32.9502C29.5093 32.9451 29.483 32.9566 29.4686 32.9784C29.4345 32.9759 29.4004 32.9899 29.3781 33.0156H29.3715C29.3466 33.0117 29.3217 33.0219 29.3085 33.0437C29.281 33.0437 29.2561 33.0437 29.243 33.0744C29.2154 33.0744 29.1892 33.0744 29.1761 33.1052C29.1485 33.1052 29.1236 33.1052 29.1105 33.1359C29.0843 33.1321 29.058 33.1436 29.0449 33.1667C28.9675 33.1872 28.9675 33.1872 29.0147 33.2397C29.0134 33.2576 29.0278 33.273 29.0462 33.2742C29.0462 33.2922 29.0593 33.3075 29.0777 33.3101C29.079 33.328 29.0921 33.3434 29.1105 33.3459V33.3383L29.1039 33.3447C29.1065 33.369 29.1236 33.3882 29.1472 33.3959V33.4023C29.1459 33.4177 29.1577 33.4292 29.1735 33.4304C29.1721 33.4471 29.1839 33.4612 29.201 33.4625H29.2023C29.2023 33.4804 29.2154 33.4945 29.2338 33.4971C29.2338 33.515 29.2469 33.5304 29.2653 33.5329C29.2653 33.5508 29.2784 33.5662 29.2967 33.5688C29.2994 33.5931 29.3164 33.6123 29.34 33.62V33.6277C29.3387 33.6431 29.3505 33.6546 29.3662 33.6559C29.365 33.6725 29.3781 33.6853 29.3951 33.6866C29.3951 33.7032 29.4082 33.7173 29.4253 33.7199C29.424 33.7378 29.4384 33.7532 29.4568 33.7544C29.4568 33.7724 29.4699 33.7877 29.4883 33.7903C29.4922 33.8147 29.5079 33.8339 29.5316 33.8428V33.8493C29.5303 33.8633 29.5408 33.8761 29.5551 33.8774C29.5565 33.8774 29.5565 33.8774 29.5578 33.8774C29.5565 33.8941 29.5683 33.9081 29.5853 33.9094H29.5866C29.5866 33.9273 29.5998 33.9414 29.6182 33.944C29.6182 33.9619 29.6313 33.9773 29.6496 33.9799C29.6522 34.0029 29.6693 34.0234 29.6916 34.0324L29.6982 34.04C29.6969 34.0541 29.7074 34.067 29.7218 34.0682H29.7231C29.7218 34.0849 29.7336 34.099 29.7506 34.1002H29.7519C29.7506 34.1182 29.7637 34.1322 29.7821 34.1348C29.7821 34.1528 29.7939 34.1681 29.8123 34.172C29.8149 34.1963 29.8307 34.2168 29.8543 34.2257V34.2321C29.8529 34.2475 29.8634 34.2603 29.8792 34.2616H29.8805C29.8792 34.2782 29.8923 34.2936 29.9094 34.2949C29.9081 34.3128 29.9225 34.3282 29.9408 34.3307C29.9408 34.3487 29.954 34.3653 29.9723 34.3679C29.975 34.3922 29.992 34.414 30.0156 34.4217V34.4281C30.0143 34.4435 30.0261 34.4575 30.0418 34.4588H30.0432C30.0418 34.4755 30.0563 34.4908 30.0733 34.4921C30.0733 34.5101 30.0852 34.5254 30.1035 34.5293C30.1062 34.5536 30.1219 34.5741 30.1455 34.583V34.5894C30.1442 34.6048 30.156 34.6189 30.1717 34.6202C30.1704 34.6381 30.1835 34.6522 30.2019 34.6547C30.2006 34.6726 30.2137 34.688 30.2321 34.6906C30.2347 34.715 30.2504 34.7354 30.2728 34.7444V34.7508C30.2714 34.7662 30.2833 34.7802 30.2989 34.7815C30.2976 34.7982 30.3108 34.8135 30.3278 34.8161C30.3265 34.8341 30.3396 34.8507 30.358 34.8533C30.3606 34.8775 30.3764 34.8981 30.4 34.907C30.3986 34.9224 30.4105 34.9365 30.4262 34.9378C30.4249 34.9557 30.438 34.9698 30.4564 34.9724C30.4564 34.9903 30.4682 35.0057 30.4865 35.0095C30.4892 35.0338 30.5049 35.0543 30.5285 35.0632C30.5259 35.0786 30.5364 35.0927 30.5522 35.0965C30.5535 35.0965 30.5548 35.0965 30.5561 35.0965C30.5548 35.1145 30.5679 35.1298 30.5862 35.1324C30.5876 35.1529 30.6007 35.1695 30.6204 35.1772C30.6204 35.1875 30.6204 35.1939 30.6335 35.1952C30.6309 35.208 30.6387 35.2208 30.6532 35.2246C30.6545 35.2246 30.6558 35.2246 30.6571 35.2246C30.6558 35.2426 30.6689 35.2566 30.6873 35.2592C30.6873 35.2771 30.6991 35.2925 30.7174 35.2963C30.7188 35.3219 30.7358 35.3437 30.7594 35.3514C30.7581 35.368 30.7699 35.3821 30.787 35.3847C30.787 35.4026 30.7988 35.418 30.8172 35.4218C30.8185 35.4462 30.8342 35.4679 30.8578 35.4769V35.4833C30.8565 35.5 30.8683 35.5141 30.8853 35.5153C30.884 35.5333 30.8958 35.5486 30.9142 35.5512C30.9169 35.5755 30.9326 35.596 30.9549 35.6062V35.6126C30.9535 35.628 30.9654 35.6421 30.9811 35.6446C30.9811 35.6626 30.9942 35.6766 31.0113 35.6805C31.0113 35.7049 31.0271 35.7266 31.0506 35.7356V35.7432C31.0493 35.7586 31.0611 35.7727 31.0769 35.774C31.0769 35.7932 31.0874 35.806 31.1097 35.8035C31.1438 35.8265 31.1779 35.8111 31.2107 35.8035C31.2723 35.8124 31.334 35.8048 31.3904 35.7778C31.4311 35.7855 31.4731 35.783 31.5111 35.7689C31.5715 35.7778 31.6331 35.7702 31.6895 35.7458C31.7302 35.7535 31.7722 35.751 31.8115 35.7382C31.8915 35.7458 31.9728 35.7382 32.0503 35.7125C32.0935 35.7215 32.1395 35.719 32.1814 35.7049C32.2851 35.7138 32.3887 35.7061 32.4884 35.6805C32.5527 35.6882 32.6182 35.6857 32.6813 35.6728C32.84 35.6818 32.9987 35.6741 33.1561 35.6485C33.248 35.6575 33.3398 35.6575 33.4316 35.6485C33.5628 35.6485 33.6808 35.6485 33.8055 35.6485C33.8055 35.7023 33.812 35.7561 33.812 35.8099V39.603C33.8107 39.6299 33.795 39.6555 33.7714 39.6696C33.753 39.6594 33.732 39.6594 33.7137 39.6696C33.6598 39.6568 33.6035 39.6543 33.5483 39.6594H29.0803C29.0252 39.6543 28.9688 39.6568 28.915 39.6696C28.8428 39.6619 28.7799 39.6197 28.7471 39.5569C28.427 39.1087 28.0912 38.6695 27.7462 38.2392C22.7718 31.9744 15.7942 27.5128 7.9246 25.5611C6.96302 25.3229 5.9923 25.1218 5.01368 24.9579C4.40762 24.8555 3.79893 24.7697 3.18631 24.7018C2.67995 24.6442 2.17228 24.5955 1.6633 24.5571C1.10971 24.5148 0.554808 24.4905 0.0012207 24.4662V20.504H0.394766C0.481346 20.5181 0.569238 20.5206 0.657127 20.5103C0.813238 20.536 0.973276 20.5424 1.13201 20.5321Z" fill="white"/>
<path d="M0 28.1069C0.493243 28.13 0.986484 28.1467 1.47973 28.1787C1.90083 28.2055 2.3206 28.2478 2.73907 28.2939C3.31759 28.3592 3.89479 28.4386 4.46805 28.5372C9.71663 29.4273 14.6176 31.6952 18.6475 35.0965C20.2387 36.4335 21.6857 37.9254 22.9647 39.5505C23.0067 39.6043 23.0473 39.6606 23.0854 39.7106C23.0788 39.7272 23.0775 39.7336 23.0736 39.7362C23.0683 39.7375 23.0631 39.7375 23.0578 39.7362H18.1726L18.069 39.6389C15.5975 37.1954 12.6433 35.2694 9.38476 33.976C7.98374 33.4189 6.53545 32.9848 5.05575 32.6775C4.38278 32.5366 3.70589 32.4226 3.02374 32.3343C2.36783 32.2497 1.70011 32.1882 1.03502 32.1562C0.746422 32.1408 0.457825 32.1307 0.169224 32.1268C0.114128 32.1268 0.0590317 32.1268 0.00393545 32.1268L0 28.1069Z" fill="white"/>
<path d="M0 35.7432C0.121999 35.7432 0.243998 35.7433 0.365997 35.7509C0.874985 35.7816 1.38397 35.8201 1.89033 35.879C5.56211 36.3131 9.07384 37.595 12.1356 39.6197L12.2668 39.7119C12.2563 39.7529 12.2248 39.7413 12.1999 39.7426H0.182343H0V35.7432Z" fill="white"/>
</svg>
